<svg width="77" height="40" viewBox="0 0 77 40" fill="none" xmlns="http://www.w3.org/2000/svg">
<path d="M61.1158 28.9625C60.4723 28.9625 60.0306 28.8371 59.7852 28.5862C59.5398 28.3354 59.4198 27.8991 59.4198 27.2665V7.34559H53.4157C52.7722 7.34559 52.3305 7.22562 52.0851 6.99113C51.8397 6.75664 51.7197 6.30946 51.7197 5.64961V2.02862C51.7197 1.39604 51.8397 0.959771 52.0851 0.708919C52.3305 0.458067 52.7722 0.332642 53.4157 0.332642H73.3639C74.0074 0.332642 74.4491 0.458067 74.6945 0.708919C74.9399 0.959771 75.0599 1.39604 75.0599 2.02862V5.64961C75.0599 6.30401 74.9399 6.75118 74.7054 6.99113C74.4709 7.22562 74.0237 7.34559 73.3639 7.34559H67.3598V27.272C67.3598 27.9046 67.2398 28.3408 66.9944 28.5917C66.749 28.8425 66.3073 28.9679 65.6638 28.9679H61.1158V28.9625Z" fill="#009739"/>
<path fill-rule="evenodd" clip-rule="evenodd" d="M42.1 1.52692L42.1545 1.69052L52.2867 27.85C52.3958 28.1227 52.3958 28.3408 52.2322 28.5044C52.0686 28.668 51.8505 28.7226 51.4687 28.7226H45.9663C45.6392 28.7226 45.421 28.668 45.2574 28.559C45.0938 28.4499 44.9848 28.2863 44.8757 28.0136C44.7121 27.5283 44.494 27.032 44.2758 26.4867C46.2881 25.396 47.5969 23.2747 47.5969 20.8752C47.5969 17.2761 44.7121 14.3858 41.1184 14.3858C40.7366 14.3858 40.4094 14.4403 40.0822 14.5003L38.7734 10.5194L42.1 1.52692Z" fill="#009739"/>
<path fill-rule="evenodd" clip-rule="evenodd" d="M34.7493 0.763464C34.7493 0.70893 34.8039 0.599864 34.9129 0.490798C34.9675 0.436265 35.022 0.327198 35.1311 0.272665C35.2401 0.163599 35.3492 0.109065 35.4582 0.0545322C35.5673 -8.32921e-07 35.6764 0 35.7854 0H40.7425C40.9552 0 41.1788 0.0545339 41.3424 0.218133C41.3969 0.272666 41.3969 0.327197 41.4514 0.327197L38.294 9.04703C38.1304 9.37423 38.0213 9.75596 37.8577 10.1377V10.1922L31.1065 28.668C30.9974 28.7226 30.8338 28.7226 30.6702 28.7226H24.9443C24.7261 28.7226 24.508 28.668 24.3444 28.559C24.1808 28.3954 24.1808 28.2372 24.2899 27.9591L34.7493 0.763464Z" fill="#8DC63F"/>
<path fill-rule="evenodd" clip-rule="evenodd" d="M41.1242 26.2686C44.1181 26.2686 46.5175 23.8691 46.5175 20.8753C46.5175 17.8759 44.1181 15.4819 41.1242 15.4819C38.1249 15.4819 35.7363 17.8814 35.7363 20.8753C35.7309 23.8691 38.1249 26.2686 41.1242 26.2686Z" fill="#8DC63F"/>
<path d="M19.0599 6.15677C19.0599 3.61553 20.5051 1.41785 22.6046 0.332642H21.6121C20.6414 0.332642 19.9488 0.458067 19.5453 0.708919C19.1363 0.959771 18.8582 1.39604 18.7 2.02862L14.8827 15.8528C14.4246 17.4669 14.141 19.1956 14.0374 21.0334H13.6612L13.5848 20.2645C13.5303 19.741 13.4321 19.0429 13.2903 18.1759C13.1431 17.3088 12.974 16.5235 12.7777 15.8146L8.91678 2.03407C8.76954 1.40149 8.49142 0.965226 8.07151 0.714373C7.65161 0.463521 6.93723 0.338094 5.92291 0.338094H1.33668C0.142408 0.338094 -0.250231 0.888879 0.153313 1.99045L9.1131 27.6264C9.28215 28.139 9.52755 28.4881 9.84384 28.6789C10.1601 28.8698 10.6128 28.9625 11.2017 28.9625H16.2406C16.8459 28.9625 17.2985 28.8698 17.5984 28.6789C17.8984 28.4881 18.1492 28.1118 18.3455 27.5446L23.6516 12.3463C21.0286 11.5174 19.0599 9.01976 19.0599 6.15677Z" fill="#009739"/>
<path fill-rule="evenodd" clip-rule="evenodd" d="M25.5437 0.708923C22.6044 0.708923 20.1504 3.16291 20.1504 6.15678C20.1504 9.10156 22.6044 11.5501 25.5437 11.5501C28.5376 11.5501 30.937 9.09611 30.937 6.15678C30.937 3.16291 28.543 0.708923 25.5437 0.708923Z" fill="#8DC63F"/>
<path d="M76.2157 30.5712H3.125V31.1166H76.2157V30.5712Z" fill="#009739"/>
<path d="M76.2157 39.4547H3.125V40H76.2157V39.4547Z" fill="#009739"/>
<path d="M7.75563 35.0102L7.48297 34.8793C7.18849 34.7376 7.0358 34.6067 7.0358 34.3395C7.0358 34.0832 7.25938 33.8923 7.5266 33.8923C7.64657 33.8923 7.75564 33.9196 7.8647 33.9632L7.96286 34.6067H8.53001L8.57908 33.8214C8.30097 33.6469 7.89197 33.5487 7.49388 33.5487C6.6159 33.5487 6.08692 33.9523 6.08692 34.6176C6.08692 35.2393 6.45229 35.5665 7.1285 35.8882L7.36845 36.0027C7.64111 36.1336 7.75563 36.2536 7.75563 36.5153C7.75563 36.7607 7.59749 36.9789 7.25938 36.9789C7.06852 36.9789 6.90492 36.9461 6.74132 36.8916L6.63225 36.2099H6.0542L6.02148 37.0389C6.35959 37.2461 6.84493 37.3224 7.25393 37.3224C8.25734 37.3224 8.73178 36.8425 8.73178 36.199C8.72632 35.6319 8.4373 35.3374 7.75563 35.0102Z" fill="#009739"/>
<path d="M20.6359 33.6578H20.3087V33.9795L20.6414 34.0122C20.6468 34.4103 20.6523 34.8139 20.6523 35.212H19.7416C19.7416 34.8084 19.747 34.4103 19.7525 34.0122L20.0852 33.9795V33.6578H19.758H18.6455H18.291V33.9795L18.6509 34.0177C18.6564 34.4594 18.6618 34.9066 18.6618 35.3483V35.5228C18.6618 35.9754 18.6564 36.4171 18.6509 36.8534L18.291 36.8916V37.2133H18.6455H19.758H20.0852V36.8916L19.7525 36.8589C19.747 36.4281 19.7416 35.9918 19.7416 35.5555H20.6578C20.6578 35.9972 20.6523 36.4281 20.6468 36.8589L20.3142 36.8916V37.2133H20.6414H21.7539H22.1083V36.8916L21.7484 36.8534C21.743 36.4117 21.7375 35.9645 21.7375 35.5228V35.3483C21.7375 34.8957 21.743 34.454 21.7484 34.0177L22.1083 33.9795V33.6578H21.7539H20.6359Z" fill="#009739"/>
<path d="M32.0499 33.6578H31.6846V33.9795L32.0554 34.0177C32.0608 34.4594 32.0663 34.9066 32.0663 35.3483V35.5228C32.0663 35.9754 32.0608 36.4171 32.0554 36.8534L31.6846 36.8916V37.2133H32.0499H33.1624H33.5332V36.8916L33.157 36.8534C33.1515 36.4062 33.1461 35.9645 33.1461 35.5174V35.3483C33.1461 34.8957 33.1515 34.454 33.157 34.0177L33.5332 33.9795V33.6578H33.1624H32.0499Z" fill="#009739"/>
<path d="M45.4488 36.897H44.5818C44.5709 36.4499 44.5709 35.9972 44.5709 35.5446H45.078L45.138 35.9318H45.4816V34.803H45.138L45.0726 35.1956H44.5709C44.5709 34.7866 44.5763 34.3776 44.5818 33.9795H45.3452L45.4488 34.5848H45.9615L45.9233 33.6578H44.5872H44.031H43.4747H43.1094V33.9795L43.4802 34.0177C43.4857 34.4594 43.4911 34.9066 43.4911 35.3483V35.5228C43.4911 35.9754 43.4857 36.4171 43.4802 36.8534L43.1094 36.8916V37.2133H43.4747H44.031H44.5872H46.0323L46.0705 36.2863H45.5579L45.4488 36.897Z" fill="#009739"/>
<path d="M57.8935 36.8861H57.0701C57.0591 36.4335 57.0591 35.9918 57.0591 35.5992V35.3483C57.0591 34.9011 57.0646 34.4594 57.0701 34.0232L57.5009 33.9795V33.6578H57.0755H55.963H55.5977V33.9795L55.9685 34.0177C55.9739 34.4594 55.9794 34.9066 55.9794 35.3483V35.681C55.9794 36.0027 55.9794 36.4226 55.9739 36.8534L55.6031 36.8916V37.2133H55.9685H56.5247H57.0755H58.4661L58.5206 36.1281H58.0407L57.8935 36.8861Z" fill="#009739"/>
<path d="M69.6231 33.6578H69.4759H68.9197H68.3634H67.998V33.9795L68.3689 34.0177C68.3743 34.4594 68.3798 34.9066 68.3798 35.3483V35.5228C68.3798 35.9754 68.3743 36.4171 68.3689 36.8534L67.998 36.8916V37.2133H68.3634H68.9197H69.4759H69.5304C70.7738 37.2133 71.5263 36.5426 71.5263 35.4192C71.5263 34.3503 70.8338 33.6578 69.6231 33.6578ZM69.5468 36.8752H69.4704C69.4595 36.4226 69.4595 35.97 69.4595 35.5174V35.3483C69.4595 34.8902 69.465 34.4431 69.4704 33.9959H69.5413C70.0812 33.9959 70.4357 34.4976 70.4357 35.4301C70.4357 36.3572 70.0812 36.8752 69.5468 36.8752Z" fill="#009739"/>
</svg>
