<?xml version="1.0" encoding="UTF-8"?>
<svg width="700pt" height="700pt" version="1.1" viewBox="0 0 700 700" xmlns="http://www.w3.org/2000/svg" xmlns:xlink="http://www.w3.org/1999/xlink">
 <defs>
  <symbol id="m" overflow="visible">
   <path d="m36.078-2.1562c-1.8672 0.96875-3.8086 1.6992-5.8281 2.1875-2.0117 0.48828-4.1094 0.73438-6.2969 0.73438-6.543 0-11.727-1.8281-15.547-5.4844-3.8125-3.6562-5.7188-8.6133-5.7188-14.875 0-6.2695 1.9062-11.234 5.7188-14.891 3.8203-3.6562 9.0039-5.4844 15.547-5.4844 2.1875 0 4.2852 0.25 6.2969 0.75 2.0195 0.49219 3.9609 1.2148 5.8281 2.1719v8.125c-1.875-1.2812-3.7266-2.2188-5.5469-2.8125-1.8242-0.59375-3.7461-0.89062-5.7656-0.89062-3.6172 0-6.4609 1.1562-8.5312 3.4688-2.0625 2.3125-3.0938 5.5-3.0938 9.5625 0 4.0547 1.0312 7.2344 3.0938 9.5469 2.0703 2.3125 4.9141 3.4688 8.5312 3.4688 2.0195 0 3.9414-0.29688 5.7656-0.89062 1.8203-0.59375 3.6719-1.5312 5.5469-2.8125z"/>
  </symbol>
  <symbol id="d" overflow="visible">
   <path d="m26.391-21.422c-0.82422-0.38281-1.6406-0.67188-2.4531-0.85938s-1.6328-0.28125-2.4531-0.28125c-2.4297 0-4.293 0.77734-5.5938 2.3281-1.3047 1.5547-1.9531 3.7773-1.9531 6.6719v13.562h-9.4219v-29.453h9.4219v4.8438c1.207-1.9258 2.5938-3.332 4.1562-4.2188 1.5703-0.88281 3.4531-1.3281 5.6406-1.3281 0.32031 0 0.66406 0.015625 1.0312 0.046875 0.36328 0.023437 0.89844 0.074219 1.6094 0.15625z"/>
  </symbol>
  <symbol id="c" overflow="visible">
   <path d="m33.922-14.797v2.6719h-22.016c0.22656 2.2109 1.0234 3.8672 2.3906 4.9688 1.375 1.1055 3.2852 1.6562 5.7344 1.6562 1.9766 0 4.0039-0.28906 6.0781-0.875 2.082-0.58203 4.2188-1.4727 6.4062-2.6719v7.2656c-2.2188 0.83594-4.4453 1.4648-6.6719 1.8906-2.2305 0.4375-4.4531 0.65625-6.6719 0.65625-5.3359 0-9.4805-1.3516-12.438-4.0625-2.9492-2.707-4.4219-6.5078-4.4219-11.406 0-4.8008 1.4453-8.5781 4.3438-11.328 2.9062-2.75 6.8984-4.125 11.984-4.125 4.625 0 8.3281 1.3984 11.109 4.1875 2.7812 2.7812 4.1719 6.5078 4.1719 11.172zm-9.6875-3.1406c0-1.7812-0.52344-3.2188-1.5625-4.3125-1.043-1.0938-2.4023-1.6406-4.0781-1.6406-1.8242 0-3.3086 0.51172-4.4531 1.5312-1.1367 1.0234-1.8438 2.4961-2.125 4.4219z"/>
  </symbol>
  <symbol id="b" overflow="visible">
   <path d="m17.719-13.25c-1.9609 0-3.4375 0.33594-4.4375 1-0.99219 0.66797-1.4844 1.6484-1.4844 2.9375 0 1.1992 0.39844 2.1367 1.2031 2.8125 0.80078 0.66797 1.9102 1 3.3281 1 1.7695 0 3.2578-0.63281 4.4688-1.9062 1.207-1.2695 1.8125-2.8594 1.8125-4.7656v-1.0781zm14.375-3.5469v16.797h-9.4844v-4.3594c-1.2617 1.7812-2.6836 3.0859-4.2656 3.9062-1.5742 0.8125-3.4922 1.2188-5.75 1.2188-3.0547 0-5.5312-0.89062-7.4375-2.6719-1.8984-1.7812-2.8438-4.0859-2.8438-6.9219 0-3.457 1.1875-5.9883 3.5625-7.5938 2.375-1.6133 6.1016-2.4219 11.188-2.4219h5.5469v-0.75c0-1.4883-0.58984-2.5781-1.7656-3.2656-1.168-0.6875-2.9961-1.0312-5.4844-1.0312-2.0234 0-3.9023 0.20312-5.6406 0.60938-1.7305 0.39844-3.3398 0.99609-4.8281 1.7969v-7.1719c2.0078-0.48828 4.0312-0.85938 6.0625-1.1094 2.0391-0.25781 4.0781-0.39062 6.1094-0.39062 5.3125 0 9.1445 1.0469 11.5 3.1406 2.3516 2.0938 3.5312 5.5 3.5312 10.219z"/>
  </symbol>
  <symbol id="i" overflow="visible">
   <path d="m14.797-37.812v8.3594h9.7031v6.7344h-9.7031v12.484c0 1.375 0.26953 2.3047 0.8125 2.7812 0.55078 0.48047 1.6289 0.71875 3.2344 0.71875h4.8438v6.7344h-8.0781c-3.7109 0-6.3398-0.77344-7.8906-2.3281-1.5547-1.5508-2.3281-4.1875-2.3281-7.9062v-12.484h-4.6875v-6.7344h4.6875v-8.3594z"/>
  </symbol>
  <symbol id="h" overflow="visible">
   <path d="m24.562-25.141v-15.766h9.4531v40.906h-9.4531v-4.2656c-1.3047 1.7422-2.7344 3.0156-4.2969 3.8281-1.5547 0.80078-3.3555 1.2031-5.4062 1.2031-3.6367 0-6.6211-1.4414-8.9531-4.3281-2.3242-2.8828-3.4844-6.5977-3.4844-11.141 0-4.5312 1.1602-8.2383 3.4844-11.125 2.332-2.8828 5.3164-4.3281 8.9531-4.3281 2.0312 0 3.8281 0.41406 5.3906 1.2344 1.5703 0.8125 3.0078 2.0742 4.3125 3.7812zm-6.2188 19.062c2.0195 0 3.5625-0.73438 4.625-2.2031s1.5938-3.6094 1.5938-6.4219c0-2.8008-0.53125-4.9375-1.5938-6.4062s-2.6055-2.2031-4.625-2.2031c-1.9922 0-3.5156 0.73438-4.5781 2.2031s-1.5938 3.6055-1.5938 6.4062c0 2.8125 0.53125 4.9531 1.5938 6.4219s2.5859 2.2031 4.5781 2.2031z"/>
  </symbol>
  <symbol id="g" overflow="visible">
   <path d="m20.188-6.0781c2.0195 0 3.5547-0.73438 4.6094-2.2031 1.0625-1.4688 1.5938-3.6094 1.5938-6.4219 0-2.8008-0.53125-4.9375-1.5938-6.4062-1.0547-1.4688-2.5898-2.2031-4.6094-2.2031-2.0117 0-3.5586 0.74219-4.6406 2.2188-1.0742 1.4805-1.6094 3.6094-1.6094 6.3906 0 2.793 0.53516 4.9297 1.6094 6.4062 1.082 1.4805 2.6289 2.2188 4.6406 2.2188zm-6.25-19.062c1.2891-1.707 2.7227-2.9688 4.2969-3.7812 1.582-0.82031 3.3984-1.2344 5.4531-1.2344 3.625 0 6.6016 1.4453 8.9375 4.3281 2.332 2.8867 3.5 6.5938 3.5 11.125 0 4.543-1.168 8.2578-3.5 11.141-2.3359 2.8867-5.3125 4.3281-8.9375 4.3281-2.0547 0-3.8711-0.40625-5.4531-1.2188-1.5742-0.82031-3.0078-2.0938-4.2969-3.8125v4.2656h-9.4219v-40.906h9.4219z"/>
  </symbol>
  <symbol id="a" overflow="visible">
   <path d="m0.65625-29.453h9.4062l7.9219 19.984 6.7344-19.984h9.4062l-12.375 32.234c-1.25 3.2812-2.7031 5.5703-4.3594 6.875-1.6562 1.3125-3.8438 1.9688-6.5625 1.9688h-5.4375v-6.1875h2.9375c1.6016 0 2.7656-0.25781 3.4844-0.76562 0.72656-0.5 1.2969-1.4062 1.7031-2.7188l0.26562-0.82812z"/>
  </symbol>
  <symbol id="f" overflow="visible">
   <path d="m20.672-24.062c1.5938 0 2.8008-0.34766 3.625-1.0469 0.82031-0.69531 1.2344-1.7266 1.2344-3.0938 0-1.3516-0.41406-2.3828-1.2344-3.0938-0.82422-0.70703-2.0312-1.0625-3.625-1.0625h-5.6094v8.2969zm0.32812 17.172c2.0391 0 3.5703-0.42578 4.5938-1.2812 1.0195-0.86328 1.5312-2.1602 1.5312-3.8906 0-1.707-0.51172-2.9844-1.5312-3.8281-1.0117-0.85156-2.543-1.2812-4.5938-1.2812h-5.9375v10.281zm9.4219-14.109c2.1641 0.625 3.8438 1.793 5.0312 3.5 1.1953 1.6992 1.7969 3.7812 1.7969 6.25 0 3.7812-1.2812 6.6055-3.8438 8.4688-2.5547 1.8555-6.4375 2.7812-11.656 2.7812h-16.812v-39.25h15.203c5.4453 0 9.3945 0.82422 11.844 2.4688 2.4453 1.6484 3.6719 4.2812 3.6719 7.9062 0 1.918-0.44922 3.5469-1.3438 4.8906-0.89844 1.3359-2.1953 2.3281-3.8906 2.9844z"/>
  </symbol>
  <symbol id="l" overflow="visible">
   <path d="m4.5156-29.453h9.4219v29.453h-9.4219zm0-11.453h9.4219v7.6719h-9.4219z"/>
  </symbol>
  <symbol id="e" overflow="visible">
   <path d="m28.312-28.531v7.6875c-1.2812-0.875-2.5703-1.5195-3.8594-1.9375-1.2812-0.42578-2.6172-0.64062-4-0.64062-2.625 0-4.6719 0.76562-6.1406 2.2969-1.4609 1.5312-2.1875 3.6719-2.1875 6.4219 0 2.7617 0.72656 4.9062 2.1875 6.4375 1.4688 1.5312 3.5156 2.2969 6.1406 2.2969 1.4688 0 2.8633-0.21875 4.1875-0.65625 1.3203-0.4375 2.5469-1.0859 3.6719-1.9531v7.7031c-1.4688 0.55469-2.9648 0.96094-4.4844 1.2344-1.5117 0.26953-3.0312 0.40625-4.5625 0.40625-5.3047 0-9.4531-1.3594-12.453-4.0781-3-2.7266-4.5-6.5234-4.5-11.391 0-4.8516 1.5-8.6406 4.5-11.359 3-2.7266 7.1484-4.0938 12.453-4.0938 1.5391 0 3.0625 0.13672 4.5625 0.40625 1.5 0.27344 2.9922 0.67969 4.4844 1.2188z"/>
  </symbol>
  <symbol id="k" overflow="visible">
   <path d="m4.5156-40.906h9.4219v22.266l10.828-10.812h10.938l-14.375 13.516 15.5 15.938h-11.406l-11.484-12.281v12.281h-9.4219z"/>
  </symbol>
  <symbol id="j" overflow="visible">
   <path d="m4.5156-40.906h9.4219v40.906h-9.4219z"/>
  </symbol>
 </defs>
 <g>
  <path d="m363.11 341.6v-6.2617c5.5195-0.6875 10.559-2.1289 15.02-4.2969 5.6914-2.7539 10.18-6.5664 13.336-11.328l0.011718-0.003907c3.1875-4.8203 4.8047-10.258 4.8047-16.164 0-7.2031-1.8711-13.16-5.5547-17.711-3.4805-4.3125-7.8867-7.6094-13.094-9.8086-3.9844-1.6758-8.8555-3.2617-14.523-4.7188v-26.188c5.3516 0.53125 10.422 1.6367 15.039 3.2539 5.2812 2.1406 8.7383 0.58203 11.379-2.5039 1.7266-2.0352 2.5977-4.375 2.5977-6.9453 0-4.6641-2.5117-8.2344-6.793-9.7695-6.5938-2.5078-14.051-4.1055-22.223-4.7656v-5.8516c0-2.4023-0.88281-4.5469-2.5547-6.2109-3.418-3.3828-9.1797-3.3398-12.453 0.11719-1.5469 1.6602-2.3672 3.7695-2.3672 6.0938v6.2266c-5.7539 0.88281-10.887 2.5977-15.281 5.1094-5.4805 3.1484-9.6875 7.2031-12.492 12.062-2.8203 4.8594-4.25 10.223-4.25 15.945 0 6.6406 1.8281 12.262 5.4062 16.691 3.3672 4.2031 7.6445 7.4883 12.715 9.7852 3.8789 1.75 8.5508 3.4062 13.902 4.9492v25.082c-6.3398-0.73438-12.492-2.418-18.363-5.0234-4.1016-1.8086-8.9375-0.95703-11.895 2.2617-1.8086 1.9805-2.7656 4.4492-2.7656 7.1367 0 2.168 0.65234 4.1875 1.9141 5.9727 1.2305 1.7773 2.8281 3.0859 4.7344 3.8789 8.2031 3.4961 17.07 5.7578 26.375 6.7344v6.2422c0 3.1562 1.3789 5.1445 2.5859 6.3164 1.6211 1.5039 3.7031 2.2969 6.0352 2.2969 2.4805 0 4.6484-0.86328 6.2461-2.4648 1.6328-1.6094 2.5078-3.7305 2.5078-6.1406zm11.621-38.914c0 4.4805-1.4297 9.6484-11.621 11.512v-20.23c3.6406 1.2031 6.5312 2.4492 8.6133 3.7109 2.1133 1.2852 3.0078 2.7852 3.0078 5.0078zm-28.996-56.469v20.508c-3.0586-1.0898-5.5117-2.2891-7.3203-3.582l-0.011718-0.003906c-2.082-1.4922-3.0078-3.4219-3.0078-6.2578 0-3.0859 1.125-5.4102 3.543-7.3242 1.8008-1.4375 4.082-2.5508 6.7969-3.3398zm40.496-3.1172 0.003907 0.003906z"/>
  <path d="m607.38 208.4c-1.8086-3.707-5.5625-6.0586-9.6875-6.0586h-26.512v-121.74c0-16.957-13.797-30.758-30.75-30.758h-109.83c-16.953 0-30.75 13.797-30.75 30.758 0 16.957 13.797 30.758 30.75 30.758h79.066v90.988h-27.102c-4.1211 0-7.8789 2.3516-9.6875 6.0586-1.7969 3.7031-1.3359 8.1133 1.2109 11.352l57.559 73.449c2.0391 2.6094 5.1641 4.1289 8.4766 4.1289s6.4375-1.5195 8.4766-4.1289l57.57-73.449c2.543-3.2422 3.0039-7.6523 1.207-11.355zm-67.254 60.703-35.441-45.223h15.754c5.9531 0 10.77-4.8203 10.77-10.77l-0.003906-112.52c0-5.9492-4.8164-10.77-10.77-10.77h-89.832c-5.0781 0-9.2109-4.1328-9.2109-9.2188 0-5.0859 4.1328-9.2188 9.2109-9.2188h109.83c5.1641 0 9.2109 4.0508 9.2109 9.2188v132.51c0 5.9492 4.8164 10.77 10.77 10.77h15.156z"/>
  <path d="m282.77 155.25c3.6914 1.7969 8.0977 1.3359 11.359-1.2031l73.449-57.566c2.5977-2.0391 4.1211-5.168 4.1211-8.4766s-1.5234-6.4375-4.1211-8.4766l-73.449-57.559c-3.2617-2.5391-7.668-3.0039-11.359-1.2031-3.7031 1.8047-6.0586 5.5586-6.0586 9.6797v26.504h-121.74c-16.965 0-30.762 13.797-30.762 30.758v109.83c0 16.957 13.797 30.758 30.762 30.758 16.953 0 30.75-13.797 30.75-30.758v-79.07h90.992v27.105c0 4.1211 2.3555 7.875 6.0586 9.6797zm-107.82-58.328c-5.9531 0-10.77 4.8203-10.77 10.77v89.84c0 5.0859-4.1328 9.2188-9.2109 9.2188-5.0898 0-9.2227-4.1328-9.2227-9.2188l-0.003906-109.83c0-5.168 4.0508-9.2188 9.2227-9.2188h132.51c5.9531 0 10.77-4.8203 10.77-10.77v-15.148l45.223 35.438-45.223 35.441v-15.754c0-5.9492-4.8164-10.77-10.77-10.77z"/>
  <path d="m159.56 510.14h109.83c16.965 0 30.762-13.797 30.762-30.758 0-16.957-13.797-30.75-30.762-30.75h-79.066v-90.988h27.102c4.1211 0 7.8789-2.3516 9.6875-6.0586 1.7969-3.7031 1.3359-8.1133-1.2109-11.352l-57.559-73.449c-4.082-5.2148-12.871-5.2148-16.953 0l-57.559 73.449c-2.5469 3.2383-3.0078 7.6523-1.2109 11.352 1.8086 3.707 5.5625 6.0586 9.6875 6.0586h26.504v121.74c-0.003906 16.961 13.797 30.758 30.75 30.758zm-35.137-174.03 35.441-45.223 35.441 45.223h-15.754c-5.9531 0-10.77 4.8203-10.77 10.77v112.52c0 5.9492 4.8164 10.77 10.77 10.77h89.836c5.0898 0 9.2227 4.1328 9.2227 9.2109 0 5.0859-4.1328 9.2188-9.2227 9.2188h-109.83c-5.1641 0-9.2109-4.0508-9.2109-9.2188l-0.003906-132.5c0-5.9492-4.8164-10.77-10.77-10.77z"/>
  <path d="m405.88 538.03c1.9336 1.5156 4.2812 2.293 6.6484 2.293 1.6094 0 3.2188-0.35938 4.7109-1.0898 3.7031-1.8047 6.0586-5.5586 6.0586-9.6797v-26.508h121.73c16.965 0 30.762-13.797 30.762-30.758v-109.82c0-16.957-13.797-30.758-30.762-30.758-16.953 0-30.75 13.797-30.75 30.758v79.07h-90.98v-27.105c0-4.1211-2.3555-7.8789-6.0586-9.6797-3.6797-1.8047-8.1094-1.3398-11.359 1.2031l-73.449 57.559c-2.5977 2.0391-4.1211 5.168-4.1211 8.4766 0 3.3086 1.5234 6.4375 4.1211 8.4766zm-4.1211-101.48v15.754c0 5.9492 4.8164 10.77 10.77 10.77h112.52c5.9531 0 10.77-4.8203 10.77-10.77v-89.84c0-5.0859 4.1328-9.2188 9.2109-9.2188 5.0898 0 9.2227 4.1328 9.2227 9.2188v109.82c0 5.168-4.0508 9.2188-9.2227 9.2188h-132.5c-5.9531 0-10.77 4.8203-10.77 10.77v15.156l-45.223-35.441z"/>
  <path d="m469.52 280.05c0-63.484-51.605-115.14-115.03-115.14-63.426 0-115.03 51.652-115.03 115.14 0 63.434 51.605 115.04 115.03 115.04 63.426 0 115.03-51.605 115.03-115.04zm-208.53 0c0-51.613 41.941-93.602 93.496-93.602 51.555 0 93.496 41.988 93.496 93.602 0 51.555-41.941 93.5-93.496 93.5-51.555 0-93.496-41.945-93.496-93.5z"/>
  <use x="70" y="721.539062" xlink:href="#m"/>
  <use x="109.515625" y="721.539062" xlink:href="#d"/>
  <use x="136.070312" y="721.539062" xlink:href="#c"/>
  <use x="172.589844" y="721.539062" xlink:href="#b"/>
  <use x="208.925781" y="721.539062" xlink:href="#i"/>
  <use x="234.667969" y="721.539062" xlink:href="#c"/>
  <use x="271.1875" y="721.539062" xlink:href="#h"/>
  <use x="328.476562" y="721.539062" xlink:href="#g"/>
  <use x="367.023438" y="721.539062" xlink:href="#a"/>
  <use x="420.867187" y="721.539062" xlink:href="#f"/>
  <use x="461.910156" y="721.539062" xlink:href="#d"/>
  <use x="488.464844" y="721.539062" xlink:href="#l"/>
  <use x="506.921875" y="721.539062" xlink:href="#e"/>
  <use x="538.839844" y="721.539062" xlink:href="#k"/>
  <use x="574.648438" y="721.539062" xlink:href="#e"/>
  <use x="606.570312" y="721.539062" xlink:href="#j"/>
  <use x="625.027344" y="721.539062" xlink:href="#b"/>
  <use x="661.359375" y="721.539062" xlink:href="#a"/>
 </g>
</svg>
