<?xml version="1.0" encoding="UTF-8"?>
<svg width="700pt" height="700pt" version="1.1" viewBox="0 0 700 700" xmlns="http://www.w3.org/2000/svg" xmlns:xlink="http://www.w3.org/1999/xlink">
 <defs>
  <symbol id="h" overflow="visible">
   <path d="m14.656-0.875c-0.76172 0.39844-1.5547 0.69531-2.375 0.89062-0.8125 0.19531-1.6641 0.29688-2.5469 0.29688-2.6562 0-4.7617-0.73828-6.3125-2.2188-1.5547-1.4883-2.3281-3.5039-2.3281-6.0469 0-2.5508 0.77344-4.5664 2.3281-6.0469 1.5508-1.4883 3.6562-2.2344 6.3125-2.2344 0.88281 0 1.7344 0.10156 2.5469 0.29688 0.82031 0.19922 1.6133 0.49609 2.375 0.89062v3.2969c-0.76172-0.51953-1.5117-0.89844-2.25-1.1406-0.74219-0.23828-1.5234-0.35938-2.3438-0.35938-1.4688 0-2.625 0.46875-3.4688 1.4062-0.83594 0.9375-1.25 2.2344-1.25 3.8906 0 1.6484 0.41406 2.9375 1.25 3.875 0.84375 0.9375 2 1.4062 3.4688 1.4062 0.82031 0 1.6016-0.11719 2.3438-0.35938 0.73828-0.23828 1.4883-0.61719 2.25-1.1406z"/>
  </symbol>
  <symbol id="b" overflow="visible">
   <path d="m10.719-8.7031c-0.33594-0.15625-0.66797-0.26953-1-0.34375-0.32422-0.082031-0.65625-0.125-1-0.125-0.98047 0-1.7344 0.32031-2.2656 0.95312-0.53125 0.625-0.79688 1.5273-0.79688 2.7031v5.5156h-3.8125v-11.969h3.8125v1.9688c0.48828-0.78125 1.0508-1.3477 1.6875-1.7031 0.64453-0.36328 1.4102-0.54688 2.2969-0.54688 0.13281 0 0.27344 0.007812 0.42188 0.015625 0.14453 0.011719 0.36328 0.03125 0.65625 0.0625z"/>
  </symbol>
  <symbol id="a" overflow="visible">
   <path d="m13.781-6.0156v1.0938h-8.9375c0.09375 0.89844 0.41406 1.5703 0.96875 2.0156 0.55078 0.44922 1.3281 0.67188 2.3281 0.67188 0.80078 0 1.625-0.11719 2.4688-0.35938 0.84375-0.23828 1.7109-0.59766 2.6094-1.0781v2.9531c-0.90625 0.33594-1.8125 0.58984-2.7188 0.76562s-1.8125 0.26562-2.7188 0.26562c-2.1562 0-3.8398-0.54688-5.0469-1.6406-1.1992-1.1016-1.7969-2.6484-1.7969-4.6406 0-1.9453 0.58594-3.4766 1.7656-4.5938 1.1758-1.125 2.8008-1.6875 4.875-1.6875 1.875 0 3.375 0.57031 4.5 1.7031 1.1328 1.125 1.7031 2.6367 1.7031 4.5312zm-3.9375-1.2656c0-0.72656-0.21484-1.3125-0.64062-1.75-0.41797-0.44531-0.96875-0.67188-1.6562-0.67188-0.74219 0-1.3438 0.21094-1.8125 0.625-0.46094 0.41797-0.74609 1.0156-0.85938 1.7969z"/>
  </symbol>
  <symbol id="d" overflow="visible">
   <path d="m7.2031-5.3906c-0.80469 0-1.4062 0.13672-1.8125 0.40625-0.39844 0.27344-0.59375 0.67188-0.59375 1.2031 0 0.48047 0.16016 0.85938 0.48438 1.1406 0.32031 0.27344 0.77344 0.40625 1.3594 0.40625 0.71875 0 1.3203-0.25391 1.8125-0.76562 0.48828-0.51953 0.73438-1.1719 0.73438-1.9531v-0.4375zm5.8438-1.4375v6.8281h-3.8594v-1.7656c-0.51172 0.71875-1.0898 1.2461-1.7344 1.5781-0.63672 0.33203-1.418 0.5-2.3438 0.5-1.2422 0-2.2461-0.35938-3.0156-1.0781-0.77344-0.72656-1.1562-1.6719-1.1562-2.8281 0-1.3945 0.47656-2.4219 1.4375-3.0781 0.96875-0.65625 2.4883-0.98438 4.5625-0.98438h2.25v-0.29688c0-0.60156-0.24219-1.0469-0.71875-1.3281-0.48047-0.28125-1.2266-0.42188-2.2344-0.42188-0.8125 0-1.5742 0.085937-2.2812 0.25-0.71094 0.15625-1.3672 0.40234-1.9688 0.73438v-2.9219c0.82031-0.19531 1.6445-0.34766 2.4688-0.45312 0.82031-0.10156 1.6484-0.15625 2.4844-0.15625 2.1562 0 3.7109 0.42969 4.6719 1.2812 0.95703 0.84375 1.4375 2.2266 1.4375 4.1406z"/>
  </symbol>
  <symbol id="c" overflow="visible">
   <path d="m6.0156-15.359v3.3906h3.9375v2.7344h-3.9375v5.0781c0 0.55469 0.10938 0.92969 0.32812 1.125 0.21875 0.19922 0.65625 0.29688 1.3125 0.29688h1.9688v2.7344h-3.2812c-1.5117 0-2.5859-0.3125-3.2188-0.9375-0.625-0.63281-0.9375-1.707-0.9375-3.2188v-5.0781h-1.9062v-2.7344h1.9062v-3.3906z"/>
  </symbol>
  <symbol id="k" overflow="visible">
   <path d="m9.9688-10.219v-6.4062h3.8594v16.625h-3.8594v-1.7344c-0.52344 0.71094-1.1016 1.2305-1.7344 1.5625-0.63672 0.32031-1.3711 0.48438-2.2031 0.48438-1.4688 0-2.6797-0.58203-3.625-1.75-0.94922-1.1758-1.4219-2.6875-1.4219-4.5312s0.47266-3.3477 1.4219-4.5156c0.94531-1.1758 2.1562-1.7656 3.625-1.7656 0.83203 0 1.5664 0.16797 2.2031 0.5 0.63281 0.32422 1.2109 0.83594 1.7344 1.5312zm-2.5156 7.75c0.82031 0 1.4453-0.29688 1.875-0.89062 0.42578-0.60156 0.64062-1.4727 0.64062-2.6094 0-1.1445-0.21484-2.0156-0.64062-2.6094-0.42969-0.59375-1.0547-0.89062-1.875-0.89062-0.8125 0-1.4336 0.29688-1.8594 0.89062-0.42969 0.59375-0.64062 1.4648-0.64062 2.6094 0 1.1367 0.21094 2.0078 0.64062 2.6094 0.42578 0.59375 1.0469 0.89062 1.8594 0.89062z"/>
  </symbol>
  <symbol id="j" overflow="visible">
   <path d="m8.2031-2.4688c0.82031 0 1.4453-0.29688 1.875-0.89062 0.42578-0.60156 0.64062-1.4727 0.64062-2.6094 0-1.1445-0.21484-2.0156-0.64062-2.6094-0.42969-0.59375-1.0547-0.89062-1.875-0.89062-0.82422 0-1.4531 0.30469-1.8906 0.90625-0.4375 0.59375-0.65625 1.4609-0.65625 2.5938 0 1.1367 0.21875 2.0078 0.65625 2.6094 0.4375 0.59375 1.0664 0.89062 1.8906 0.89062zm-2.5469-7.75c0.53125-0.69531 1.1133-1.207 1.75-1.5312 0.64453-0.33203 1.3828-0.5 2.2188-0.5 1.4688 0 2.6758 0.58984 3.625 1.7656 0.94531 1.168 1.4219 2.6719 1.4219 4.5156s-0.47656 3.3555-1.4219 4.5312c-0.94922 1.168-2.1562 1.75-3.625 1.75-0.83594 0-1.5742-0.16797-2.2188-0.5-0.63672-0.33203-1.2188-0.84766-1.75-1.5469v1.7344h-3.8125v-16.625h3.8125z"/>
  </symbol>
  <symbol id="i" overflow="visible">
   <path d="m0.26562-11.969h3.8281l3.2188 8.125 2.7344-8.125h3.8125l-5.0312 13.094c-0.5 1.332-1.0898 2.2656-1.7656 2.7969-0.66797 0.53125-1.5547 0.79688-2.6562 0.79688h-2.2188v-2.5h1.2031c0.64453 0 1.1133-0.10547 1.4062-0.3125 0.30078-0.21094 0.53125-0.57812 0.6875-1.1094l0.10938-0.34375z"/>
  </symbol>
  <symbol id="f" overflow="visible">
   <path d="m1.8438-11.969h3.8125v11.969h-3.8125zm0-4.6562h3.8125v3.125h-3.8125z"/>
  </symbol>
  <symbol id="u" overflow="visible">
   <path d="m0.32812-11.969h3.8281l2.9844 8.2656 2.9688-8.2656h3.8281l-4.7031 11.969h-4.2031z"/>
  </symbol>
  <symbol id="t" overflow="visible">
   <path d="m2.0156-15.953h5.2188l3.6406 8.5469 3.6562-8.5469h5.2188v15.953h-3.8906v-11.656l-3.6719 8.5938h-2.6094l-3.6719-8.5938v11.656h-3.8906z"/>
  </symbol>
  <symbol id="g" overflow="visible">
   <path d="m13.859-7.2812v7.2812h-3.8438v-5.5469c0-1.0508-0.027344-1.7695-0.078125-2.1562-0.042969-0.39453-0.12109-0.6875-0.23438-0.875-0.14844-0.25-0.35156-0.44141-0.60938-0.57812-0.25-0.14453-0.54297-0.21875-0.875-0.21875-0.79297 0-1.418 0.3125-1.875 0.9375-0.46094 0.61719-0.6875 1.4648-0.6875 2.5469v5.8906h-3.8125v-16.625h3.8125v6.4062c0.58203-0.69531 1.1953-1.207 1.8438-1.5312 0.64453-0.33203 1.3594-0.5 2.1406-0.5 1.3828 0 2.4297 0.42969 3.1406 1.2812 0.71875 0.84375 1.0781 2.0742 1.0781 3.6875z"/>
  </symbol>
  <symbol id="s" overflow="visible">
   <path d="m9.7031-16.625v2.5156h-2.1094c-0.54297 0-0.92188 0.10156-1.1406 0.29688-0.21094 0.19922-0.3125 0.53906-0.3125 1.0156v0.82812h3.2656v2.7344h-3.2656v9.2344h-3.8281v-9.2344h-1.8906v-2.7344h1.8906v-0.82812c0-1.3008 0.36328-2.2656 1.0938-2.8906 0.72656-0.625 1.8516-0.9375 3.375-0.9375z"/>
  </symbol>
  <symbol id="e" overflow="visible">
   <path d="m7.5312-9.5156c-0.84375 0-1.4922 0.30859-1.9375 0.92188-0.44922 0.60547-0.67188 1.4805-0.67188 2.625 0 1.1484 0.22266 2.0273 0.67188 2.6406 0.44531 0.60547 1.0938 0.90625 1.9375 0.90625 0.83203 0 1.4688-0.30078 1.9062-0.90625 0.44531-0.61328 0.67188-1.4922 0.67188-2.6406 0-1.1445-0.22656-2.0195-0.67188-2.625-0.4375-0.61328-1.0742-0.92188-1.9062-0.92188zm0-2.7344c2.0508 0 3.6562 0.55859 4.8125 1.6719 1.1641 1.1055 1.75 2.6406 1.75 4.6094s-0.58594 3.5117-1.75 4.625c-1.1562 1.1055-2.7617 1.6562-4.8125 1.6562-2.0625 0-3.6797-0.55078-4.8438-1.6562-1.168-1.1133-1.75-2.6562-1.75-4.625s0.58203-3.5039 1.75-4.6094c1.1641-1.1133 2.7812-1.6719 4.8438-1.6719z"/>
  </symbol>
  <symbol id="r" overflow="visible">
   <path d="m12.922-9.9688c0.48828-0.75 1.0625-1.3164 1.7188-1.7031 0.66406-0.38281 1.3984-0.57812 2.2031-0.57812 1.375 0 2.4219 0.42969 3.1406 1.2812 0.71875 0.84375 1.0781 2.0742 1.0781 3.6875v7.2812h-3.8438v-6.2344c0.007812-0.09375 0.015625-0.1875 0.015625-0.28125v-0.4375c0-0.84375-0.125-1.457-0.375-1.8438-0.25-0.38281-0.65234-0.57812-1.2031-0.57812-0.73047 0-1.293 0.30469-1.6875 0.90625-0.38672 0.59375-0.58984 1.4609-0.60938 2.5938v5.875h-3.8438v-6.2344c0-1.3203-0.11719-2.1758-0.34375-2.5625-0.23047-0.38281-0.63672-0.57812-1.2188-0.57812-0.73047 0-1.2969 0.30469-1.7031 0.90625-0.39844 0.60547-0.59375 1.4648-0.59375 2.5781v5.8906h-3.8438v-11.969h3.8438v1.75c0.46875-0.66406 1.0039-1.1719 1.6094-1.5156 0.61328-0.34375 1.2891-0.51562 2.0312-0.51562 0.82031 0 1.5508 0.19922 2.1875 0.59375 0.63281 0.39844 1.1133 0.96094 1.4375 1.6875z"/>
  </symbol>
  <symbol id="q" overflow="visible">
   <path d="m2.0156-15.953h4.5781l5.8125 10.938v-10.938h3.8906v15.953h-4.5938l-5.7969-10.938v10.938h-3.8906z"/>
  </symbol>
  <symbol id="p" overflow="visible">
   <path d="m1.7031-4.6562v-7.3125h3.8438v1.2031c0 0.64844-0.007813 1.4609-0.015625 2.4375v1.9688c0 0.96094 0.023438 1.6523 0.078125 2.0781 0.050781 0.41797 0.13281 0.72656 0.25 0.92188 0.15625 0.25 0.35938 0.44531 0.60938 0.57812 0.25781 0.13672 0.55078 0.20312 0.875 0.20312 0.80078 0 1.4258-0.30469 1.875-0.92188 0.45703-0.61328 0.6875-1.4688 0.6875-2.5625v-5.9062h3.8281v11.969h-3.8281v-1.7344c-0.57422 0.69922-1.1836 1.2148-1.8281 1.5469-0.64844 0.33203-1.3555 0.5-2.125 0.5-1.3867 0-2.4453-0.42188-3.1719-1.2656-0.71875-0.85156-1.0781-2.0859-1.0781-3.7031z"/>
  </symbol>
  <symbol id="o" overflow="visible">
   <path d="m13.859-7.2812v7.2812h-3.8438v-5.5781c0-1.0312-0.027344-1.7383-0.078125-2.125-0.042969-0.39453-0.12109-0.6875-0.23438-0.875-0.14844-0.25-0.35156-0.44141-0.60938-0.57812-0.25-0.14453-0.54297-0.21875-0.875-0.21875-0.79297 0-1.418 0.3125-1.875 0.9375-0.46094 0.61719-0.6875 1.4648-0.6875 2.5469v5.8906h-3.8125v-11.969h3.8125v1.75c0.58203-0.69531 1.1953-1.207 1.8438-1.5312 0.64453-0.33203 1.3594-0.5 2.1406-0.5 1.3828 0 2.4297 0.42969 3.1406 1.2812 0.71875 0.84375 1.0781 2.0742 1.0781 3.6875z"/>
  </symbol>
  <symbol id="n" overflow="visible">
   <path d="m2.0156-15.953h6.8125c2.0312 0 3.5859 0.45312 4.6719 1.3594 1.0938 0.89844 1.6406 2.1797 1.6406 3.8438 0 1.6797-0.54688 2.9688-1.6406 3.875-1.0859 0.89844-2.6406 1.3438-4.6719 1.3438h-2.7031v5.5312h-4.1094zm4.1094 2.9844v4.4531h2.2656c0.80078 0 1.4141-0.19141 1.8438-0.57812 0.4375-0.38281 0.65625-0.9375 0.65625-1.6562 0-0.70703-0.21875-1.2539-0.65625-1.6406-0.42969-0.38281-1.043-0.57812-1.8438-0.57812z"/>
  </symbol>
  <symbol id="m" overflow="visible">
   <path d="m1.8438-11.969h3.8125v11.75c0 1.6016-0.38672 2.8281-1.1562 3.6719-0.76172 0.84375-1.8711 1.2656-3.3281 1.2656h-1.8906v-2.5h0.65625c0.72656 0 1.2266-0.16797 1.5-0.5 0.26953-0.32422 0.40625-0.96875 0.40625-1.9375zm0-4.6562h3.8125v3.125h-3.8125z"/>
  </symbol>
  <symbol id="l" overflow="visible">
   <path d="m11.5-11.594v3.125c-0.52344-0.35156-1.043-0.61328-1.5625-0.78125-0.52344-0.17578-1.0625-0.26562-1.625-0.26562-1.0742 0-1.9062 0.3125-2.5 0.9375s-0.89062 1.4961-0.89062 2.6094c0 1.1172 0.29688 1.9844 0.89062 2.6094s1.4258 0.9375 2.5 0.9375c0.59375 0 1.1562-0.085937 1.6875-0.26562 0.53906-0.17578 1.0391-0.44141 1.5-0.79688v3.125c-0.59375 0.23047-1.1992 0.39453-1.8125 0.5-0.61719 0.11328-1.2344 0.17188-1.8594 0.17188-2.1562 0-3.8438-0.55078-5.0625-1.6562-1.2188-1.1133-1.8281-2.6562-1.8281-4.625s0.60938-3.5039 1.8281-4.6094c1.2188-1.1133 2.9062-1.6719 5.0625-1.6719 0.625 0 1.2383 0.058594 1.8438 0.17188 0.61328 0.10547 1.2227 0.26562 1.8281 0.48438z"/>
  </symbol>
 </defs>
 <g>
  <path d="m507.76 121.62-8.5977 60.867c5.3047 4.9453 8.3242 11.867 8.3359 19.121v35.152l1.8438-1.2227 11.641-82.414h51.777l5.207 36.855 16.16-10.727-8.1133-57.438c-1.7461-12.379-9.8867-20.996-19.809-20.996h-0.097656c-11.48 0.050782-30.652-0.11719-38.363-0.19531-9.8906 0.03125-18.223 8.5312-19.984 20.996zm19.805-3.4961c7.75 0.085938 27.027 0.26172 38.344 0.14844h0.003906c1.6914 1.543 2.6875 3.6992 2.7734 5.9883l1.6055 11.363h-46.836l1.6328-11.559c0.16797-2.1953 1.0391-4.2773 2.4766-5.9414z"/>
  <path d="m367.83 233.5 19.016-10.355 5.1914-39.395h47.18l1.3359 10.141 16.465-8.9688-4.2695-32.402c-1.6367-12.426-9.4766-21.07-19.078-21.07h-0.09375c-10.719 0.054687-28.59-0.11719-35.789-0.19531h-0.17578c-9.6016 0-17.438 8.6328-19.078 21.07zm30.332-84.746c7.4375 0.085938 24.352 0.23438 34.953 0.19531 1.3398 1.6758 2.1367 3.7188 2.2852 5.8594l1.5078 11.441h-42.562l1.5352-11.637c0.14844-2.1406 0.94531-4.1836 2.2812-5.8594z"/>
  <path d="m625.39 184.79c-2.8438-1.5195-6.2891-1.3555-8.9766 0.42188l-126.41 83.984v-67.84c0-3.0859-1.625-5.9453-4.2812-7.5234-2.6562-1.5742-5.9453-1.6367-8.6562-0.15625l-157.69 85.957v-60.559c0-2.9531-1.4922-5.7109-3.9648-7.3242-2.4766-1.6172-5.5977-1.875-8.3047-0.6875l-231.88 101.87v0.003906c-3.1758 1.3945-5.2305 4.5391-5.2305 8.0078v230.31c0 4.832 3.918 8.75 8.75 8.75h542.5c4.832 0 8.75-3.918 8.75-8.75v-358.75c0-3.2227-1.7734-6.1875-4.6133-7.7109zm-476.64 357.71v-78.75c0.007812-6.9609 2.7773-13.633 7.6953-18.555 4.9219-4.918 11.594-7.6875 18.555-7.6953h35c6.9609 0.007812 13.633 2.7773 18.555 7.6953 4.918 4.9219 7.6875 11.594 7.6953 18.555v78.75zm315 0v-78.75c0.007812-6.9609 2.7773-13.633 7.6953-18.555 4.9219-4.918 11.594-7.6875 18.555-7.6953h35c6.9609 0.007812 13.633 2.7773 18.555 7.6953 4.918 4.9219 7.6875 11.594 7.6953 18.555v78.75zm148.75 0h-43.75v-78.75c-0.011719-11.598-4.6289-22.719-12.828-30.922-8.2031-8.1992-19.324-12.816-30.922-12.828h-35c-11.598 0.011719-22.719 4.6289-30.922 12.828-8.1992 8.2031-12.816 19.324-12.828 30.922v78.75h-192.5v-78.75c-0.011719-11.598-4.625-22.719-12.828-30.922s-19.324-12.816-30.922-12.828h-35c-11.598 0.011719-22.719 4.625-30.922 12.828s-12.816 19.324-12.828 30.922v78.75h-43.75v-215.84l214.38-94.18v61.891c0 3.0898 1.6289 5.9492 4.2812 7.5234 2.6562 1.5781 5.9453 1.6367 8.6562 0.16016l157.69-85.957v69.418c0 3.2227 1.7734 6.1875 4.6133 7.7109 2.8438 1.5234 6.293 1.3633 8.9766-0.42188l126.41-83.984z"/>
  <path d="m410.66 51.758c-28.129 24.629-25.668 52.918-25.551 54.109 0.48047 4.8086 4.7656 8.3203 9.5742 7.8398 4.8125-0.48047 8.3203-4.7656 7.8398-9.5742-0.019531-0.19922-1.4219-20.746 19.66-39.207h0.003906c9.3125-7.3398 14.918-18.414 15.312-30.262-0.39844-12.199-5.4531-23.785-14.133-32.367-1.7109-1.5703-3.9766-2.3984-6.2969-2.3008-2.3242 0.10156-4.5078 1.1172-6.0781 2.832-1.5703 1.7109-2.3945 3.9805-2.293 6.3008 0.10547 2.3203 1.125 4.5039 2.8398 6.0742 5.043 5.1953 8.0469 12.031 8.4648 19.258-0.41016 6.8633-3.8281 13.191-9.3438 17.297z"/>
  <path d="m454.41 51.758c-28.129 24.629-25.668 52.918-25.551 54.109 0.48047 4.8086 4.7656 8.3203 9.5742 7.8398 4.8125-0.48047 8.3203-4.7656 7.8398-9.5742-0.019531-0.19922-1.4219-20.746 19.66-39.207h0.003906c9.3125-7.3398 14.918-18.414 15.312-30.262-0.39844-12.199-5.4531-23.785-14.133-32.367-1.7109-1.5703-3.9766-2.3984-6.2969-2.3008-2.3242 0.10156-4.5078 1.1172-6.0781 2.832-1.5703 1.7109-2.3945 3.9805-2.293 6.3008 0.10547 2.3203 1.125 4.5039 2.8398 6.0742 5.043 5.1953 8.0469 12.031 8.4648 19.258-0.41016 6.8633-3.8281 13.191-9.3438 17.297z"/>
  <path d="m536.79 33.281c-22.602 16.789-20.523 36.887-20.426 37.738h-0.003906c0.51953 4.4023 4.2461 7.7227 8.6797 7.7305 0.34375 0 0.69141-0.019531 1.0352-0.058594 2.3047-0.27344 4.4062-1.4453 5.8438-3.2695 1.4375-1.8203 2.0938-4.1367 1.8242-6.4414-0.011719-0.10547-0.625-11.172 13.484-21.648 7.6055-4.8438 12.375-13.094 12.773-22.102-0.41016-9.1406-4.7305-17.66-11.859-23.395-3.7852-2.9258-9.2266-2.2422-12.172 1.5273-2.9648 3.7969-2.332 9.2695 1.4219 12.285 2.832 2.3945 4.6602 5.7695 5.1094 9.4531-0.5625 3.4531-2.6641 6.4609-5.7109 8.1797z"/>
  <path d="m580.54 33.281c-22.602 16.789-20.523 36.887-20.426 37.738h-0.003906c0.51953 4.4023 4.2461 7.7227 8.6797 7.7305 0.34375 0 0.69141-0.019531 1.0352-0.058594 2.3047-0.27344 4.4062-1.4453 5.8438-3.2695 1.4375-1.8203 2.0938-4.1367 1.8242-6.4414-0.011719-0.10547-0.625-11.172 13.484-21.648 7.6055-4.8438 12.375-13.094 12.773-22.102-0.41016-9.1406-4.7305-17.66-11.859-23.395-3.7852-2.9258-9.2266-2.2461-12.172 1.5273-2.9648 3.7969-2.332 9.2695 1.4219 12.285 2.832 2.3945 4.6602 5.7695 5.1094 9.4531-0.5625 3.4531-2.6641 6.4609-5.7109 8.1797z"/>
  <path d="m183.75 332.65h-52.5c-4.832 0-8.75 3.918-8.75 8.75v52.461c0 4.8359 3.918 8.75 8.75 8.75h52.5c4.832 0 8.75-3.9141 8.75-8.75v-52.461c0-4.832-3.918-8.75-8.75-8.75zm-8.75 52.461h-35v-34.961h35z"/>
  <path d="m280 332.65h-52.5c-4.832 0-8.75 3.918-8.75 8.75v52.461c0 4.8359 3.918 8.75 8.75 8.75h52.5c4.832 0 8.75-3.9141 8.75-8.75v-52.461c0-4.832-3.918-8.75-8.75-8.75zm-8.75 52.461h-35v-34.961h35z"/>
  <path d="m323.75 402.61h52.5c4.832 0 8.75-3.9141 8.75-8.75v-52.461c0-4.832-3.918-8.75-8.75-8.75h-52.5c-4.832 0-8.75 3.918-8.75 8.75v52.461c0 4.8359 3.918 8.75 8.75 8.75zm8.75-52.461h35v34.961h-35z"/>
  <path d="m472.5 332.65h-52.5c-4.832 0-8.75 3.918-8.75 8.75v52.461c0 4.8359 3.918 8.75 8.75 8.75h52.5c4.832 0 8.75-3.9141 8.75-8.75v-52.461c0-4.832-3.918-8.75-8.75-8.75zm-8.75 52.461h-35v-34.961h35z"/>
  <path d="m516.25 402.61h52.5c4.832 0 8.75-3.9141 8.75-8.75v-52.461c0-4.832-3.918-8.75-8.75-8.75h-52.5c-4.832 0-8.75 3.918-8.75 8.75v52.461c0 4.8359 3.918 8.75 8.75 8.75zm8.75-52.461h35v34.961h-35z"/>
  <path d="m393.75 437.5h-87.5c-4.832 0-8.75 3.918-8.75 8.75s3.918 8.75 8.75 8.75h87.5c4.832 0 8.75-3.918 8.75-8.75s-3.918-8.75-8.75-8.75z"/>
  <path d="m393.75 472.5h-87.5c-4.832 0-8.75 3.918-8.75 8.75s3.918 8.75 8.75 8.75h87.5c4.832 0 8.75-3.918 8.75-8.75s-3.918-8.75-8.75-8.75z"/>
  <path d="m393.75 507.5h-87.5c-4.832 0-8.75 3.918-8.75 8.75s3.918 8.75 8.75 8.75h87.5c4.832 0 8.75-3.918 8.75-8.75s-3.918-8.75-8.75-8.75z"/>
  <use x="70" y="625.625" xlink:href="#h"/>
  <use x="86.054688" y="625.625" xlink:href="#b"/>
  <use x="96.839844" y="625.625" xlink:href="#a"/>
  <use x="111.679687" y="625.625" xlink:href="#d"/>
  <use x="126.4375" y="625.625" xlink:href="#c"/>
  <use x="136.894531" y="625.625" xlink:href="#a"/>
  <use x="151.730469" y="625.625" xlink:href="#k"/>
  <use x="175.007812" y="625.625" xlink:href="#j"/>
  <use x="190.664062" y="625.625" xlink:href="#i"/>
  <use x="212.539062" y="625.625" xlink:href="#h"/>
  <use x="228.59375" y="625.625" xlink:href="#b"/>
  <use x="239.382812" y="625.625" xlink:href="#a"/>
  <use x="254.21875" y="625.625" xlink:href="#d"/>
  <use x="268.980469" y="625.625" xlink:href="#c"/>
  <use x="279.4375" y="625.625" xlink:href="#f"/>
  <use x="286.933594" y="625.625" xlink:href="#u"/>
  <use x="301.195312" y="625.625" xlink:href="#a"/>
  <use x="323.644531" y="625.625" xlink:href="#t"/>
  <use x="345.414062" y="625.625" xlink:href="#d"/>
  <use x="360.175781" y="625.625" xlink:href="#g"/>
  <use x="375.746094" y="625.625" xlink:href="#f"/>
  <use x="383.246094" y="625.625" xlink:href="#b"/>
  <use x="394.035156" y="625.625" xlink:href="#d"/>
  <use x="70" y="647.5" xlink:href="#s"/>
  <use x="79.515625" y="647.5" xlink:href="#b"/>
  <use x="90.304688" y="647.5" xlink:href="#e"/>
  <use x="105.332031" y="647.5" xlink:href="#r"/>
  <use x="135.742188" y="647.5" xlink:href="#c"/>
  <use x="146.199219" y="647.5" xlink:href="#g"/>
  <use x="161.773438" y="647.5" xlink:href="#a"/>
  <use x="184.222656" y="647.5" xlink:href="#q"/>
  <use x="202.53125" y="647.5" xlink:href="#e"/>
  <use x="217.558594" y="647.5" xlink:href="#p"/>
  <use x="233.132812" y="647.5" xlink:href="#o"/>
  <use x="256.320312" y="647.5" xlink:href="#n"/>
  <use x="272.355469" y="647.5" xlink:href="#b"/>
  <use x="283.140625" y="647.5" xlink:href="#e"/>
  <use x="298.171875" y="647.5" xlink:href="#m"/>
  <use x="305.667969" y="647.5" xlink:href="#a"/>
  <use x="320.503906" y="647.5" xlink:href="#l"/>
  <use x="333.472656" y="647.5" xlink:href="#c"/>
 </g>
</svg>
