<?xml version="1.0" encoding="UTF-8"?>
<svg width="700pt" height="700pt" version="1.1" viewBox="0 0 700 700" xmlns="http://www.w3.org/2000/svg" xmlns:xlink="http://www.w3.org/1999/xlink">
 <defs>
  <symbol id="s" overflow="visible">
   <path d="m28.422-1.7031c-1.4688 0.76172-3 1.3359-4.5938 1.7188-1.5859 0.38281-3.2344 0.57812-4.9531 0.57812-5.1562 0-9.2422-1.4375-12.25-4.3125-3.0117-2.875-4.5156-6.7812-4.5156-11.719s1.5039-8.8438 4.5156-11.719c3.0078-2.8828 7.0938-4.3281 12.25-4.3281 1.7188 0 3.3672 0.19531 4.9531 0.57812 1.5938 0.38672 3.125 0.96094 4.5938 1.7188v6.4062c-1.4805-1.0078-2.9375-1.75-4.375-2.2188s-2.9492-0.70312-4.5312-0.70312c-2.8438 0-5.0859 0.91406-6.7188 2.7344-1.625 1.8242-2.4375 4.3359-2.4375 7.5312 0 3.1992 0.8125 5.7109 2.4375 7.5312 1.6328 1.8242 3.875 2.7344 6.7188 2.7344 1.582 0 3.0938-0.23438 4.5312-0.70312 1.4375-0.47656 2.8945-1.2188 4.375-2.2188z"/>
  </symbol>
  <symbol id="c" overflow="visible">
   <path d="m20.797-16.875c-0.64844-0.3125-1.293-0.53516-1.9375-0.67188-0.64844-0.14453-1.293-0.21875-1.9375-0.21875-1.9062 0-3.375 0.60938-4.4062 1.8281-1.0234 1.2188-1.5312 2.9688-1.5312 5.25v10.688h-7.4219v-23.203h7.4219v3.8125c0.94531-1.5195 2.0352-2.6289 3.2656-3.3281 1.2383-0.69531 2.7227-1.0469 4.4531-1.0469 0.25 0 0.51953 0.011719 0.8125 0.03125 0.28906 0.023437 0.71094 0.070313 1.2656 0.14062z"/>
  </symbol>
  <symbol id="b" overflow="visible">
   <path d="m26.719-11.656v2.1094h-17.328c0.17578 1.7422 0.80078 3.0469 1.875 3.9219 1.082 0.86719 2.5859 1.2969 4.5156 1.2969 1.5625 0 3.1602-0.22656 4.7969-0.6875 1.6328-0.46875 3.3164-1.1719 5.0469-2.1094v5.7188c-1.75 0.65625-3.5078 1.1523-5.2656 1.4844-1.75 0.34375-3.5078 0.51562-5.2656 0.51562-4.1992 0-7.4609-1.0625-9.7812-3.1875-2.3242-2.1328-3.4844-5.1289-3.4844-8.9844 0-3.7812 1.1406-6.7539 3.4219-8.9219 2.2812-2.1758 5.4258-3.2656 9.4375-3.2656 3.6445 0 6.5625 1.1016 8.75 3.2969 2.1875 2.1992 3.2812 5.1367 3.2812 8.8125zm-7.625-2.4688c0-1.4062-0.41406-2.5391-1.2344-3.4062-0.8125-0.86328-1.8867-1.2969-3.2188-1.2969-1.4375 0-2.6055 0.40625-3.5 1.2188-0.89844 0.80469-1.4531 1.9648-1.6719 3.4844z"/>
  </symbol>
  <symbol id="d" overflow="visible">
   <path d="m13.969-10.438c-1.5547 0-2.7188 0.26562-3.5 0.79688-0.78125 0.52344-1.1719 1.293-1.1719 2.3125 0 0.9375 0.3125 1.6719 0.9375 2.2031 0.63281 0.53125 1.5078 0.79688 2.625 0.79688 1.3945 0 2.5664-0.5 3.5156-1.5 0.95703-1 1.4375-2.2539 1.4375-3.7656v-0.84375zm11.328-2.7969v13.234h-7.4844v-3.4375c-0.99219 1.4062-2.1094 2.4336-3.3594 3.0781-1.2422 0.63281-2.75 0.95312-4.5312 0.95312-2.4062 0-4.3594-0.69531-5.8594-2.0938-1.4922-1.4062-2.2344-3.2227-2.2344-5.4531 0-2.7266 0.92969-4.7266 2.7969-6 1.875-1.2695 4.8125-1.9062 8.8125-1.9062h4.375v-0.57812c0-1.1641-0.46484-2.0195-1.3906-2.5625-0.92969-0.55078-2.3711-0.82812-4.3281-0.82812-1.5859 0-3.0625 0.16406-4.4375 0.48438-1.3672 0.3125-2.6328 0.78906-3.7969 1.4219v-5.6562c1.582-0.38281 3.1758-0.67578 4.7812-0.875 1.6016-0.20703 3.2031-0.3125 4.7969-0.3125 4.1875 0 7.207 0.82812 9.0625 2.4844 1.8633 1.6484 2.7969 4.3281 2.7969 8.0469z"/>
  </symbol>
  <symbol id="a" overflow="visible">
   <path d="m11.656-29.781v6.5781h7.6562v5.3125h-7.6562v9.8281c0 1.0859 0.21094 1.8203 0.64062 2.2031 0.4375 0.375 1.2891 0.5625 2.5625 0.5625h3.7969v5.2969h-6.3594c-2.9297 0-5-0.60938-6.2188-1.8281-1.2188-1.2266-1.8281-3.3047-1.8281-6.2344v-9.8281h-3.6875v-5.3125h3.6875v-6.5781z"/>
  </symbol>
  <symbol id="h" overflow="visible">
   <path d="m19.344-19.797v-12.438h7.4531v32.234h-7.4531v-3.3594c-1.0234 1.3672-2.1484 2.3672-3.375 3-1.2305 0.63281-2.6523 0.95312-4.2656 0.95312-2.8555 0-5.2031-1.1328-7.0469-3.4062-1.8359-2.2695-2.75-5.1914-2.75-8.7656 0-3.5703 0.91406-6.4922 2.75-8.7656 1.8438-2.2812 4.1914-3.4219 7.0469-3.4219 1.6016 0 3.0195 0.32422 4.25 0.96875 1.2383 0.64844 2.3672 1.6484 3.3906 3zm-4.8906 15.016c1.5938 0 2.8047-0.57812 3.6406-1.7344 0.83203-1.1641 1.25-2.8516 1.25-5.0625 0-2.207-0.41797-3.8906-1.25-5.0469-0.83594-1.1641-2.0469-1.75-3.6406-1.75-1.5742 0-2.7773 0.58594-3.6094 1.75-0.83594 1.1562-1.25 2.8398-1.25 5.0469 0 2.2109 0.41406 3.8984 1.25 5.0625 0.83203 1.1562 2.0352 1.7344 3.6094 1.7344z"/>
  </symbol>
  <symbol id="g" overflow="visible">
   <path d="m15.906-4.7812c1.5938 0 2.8047-0.57812 3.6406-1.7344 0.83203-1.1641 1.25-2.8516 1.25-5.0625 0-2.207-0.41797-3.8906-1.25-5.0469-0.83594-1.1641-2.0469-1.75-3.6406-1.75-1.5859 0-2.8047 0.58594-3.6562 1.75-0.84375 1.168-1.2656 2.8516-1.2656 5.0469 0 2.1992 0.42188 3.8828 1.2656 5.0469 0.85156 1.168 2.0703 1.75 3.6562 1.75zm-4.9219-15.016c1.0195-1.3516 2.1484-2.3516 3.3906-3 1.2383-0.64453 2.6641-0.96875 4.2812-0.96875 2.8633 0 5.2109 1.1406 7.0469 3.4219 1.832 2.2734 2.75 5.1953 2.75 8.7656 0 3.5742-0.91797 6.4961-2.75 8.7656-1.8359 2.2734-4.1836 3.4062-7.0469 3.4062-1.6172 0-3.043-0.32031-4.2812-0.95312-1.2422-0.64453-2.3711-1.6445-3.3906-3v3.3594h-7.4219v-32.234h7.4219z"/>
  </symbol>
  <symbol id="f" overflow="visible">
   <path d="m0.51562-23.203h7.4219l6.2344 15.75 5.2969-15.75h7.4219l-9.7656 25.406c-0.98047 2.5703-2.1211 4.375-3.4219 5.4062-1.3047 1.0312-3.0273 1.5469-5.1719 1.5469h-4.2812v-4.875h2.3125c1.2578 0 2.1758-0.19922 2.75-0.59375 0.57031-0.39844 1.0156-1.1172 1.3281-2.1562l0.21875-0.64062z"/>
  </symbol>
  <symbol id="e" overflow="visible">
   <path d="m0.20312-30.922h8.0156l8.2031 22.828 8.1875-22.828h8.0156l-11.453 30.922h-9.5156z"/>
  </symbol>
  <symbol id="r" overflow="visible">
   <path d="m22.312-22.469v6.0469c-1.0117-0.69531-2.0273-1.207-3.0469-1.5312-1.0117-0.33203-2.0625-0.5-3.1562-0.5-2.0625 0-3.6719 0.60547-4.8281 1.8125-1.1562 1.2109-1.7344 2.8984-1.7344 5.0625 0 2.168 0.57812 3.8555 1.7344 5.0625 1.1562 1.2109 2.7656 1.8125 4.8281 1.8125 1.1641 0 2.2695-0.17188 3.3125-0.51562 1.0391-0.34375 2.0039-0.85156 2.8906-1.5312v6.0625c-1.168 0.42969-2.3516 0.74219-3.5469 0.95312-1.1875 0.21875-2.3828 0.32812-3.5781 0.32812-4.1875 0-7.4648-1.0703-9.8281-3.2188-2.3555-2.1445-3.5312-5.1289-3.5312-8.9531 0-3.8203 1.1758-6.8047 3.5312-8.9531 2.3633-2.1562 5.6406-3.2344 9.8281-3.2344 1.207 0 2.3984 0.10938 3.5781 0.32812 1.1875 0.21875 2.3672 0.54297 3.5469 0.96875z"/>
  </symbol>
  <symbol id="q" overflow="visible">
   <path d="m14.609-18.453c-1.6484 0-2.9023 0.59375-3.7656 1.7812-0.86719 1.1797-1.2969 2.875-1.2969 5.0938s0.42969 3.9219 1.2969 5.1094c0.86328 1.1797 2.1172 1.7656 3.7656 1.7656 1.6133 0 2.8477-0.58594 3.7031-1.7656 0.85156-1.1875 1.2812-2.8906 1.2812-5.1094s-0.42969-3.9141-1.2812-5.0938c-0.85547-1.1875-2.0898-1.7812-3.7031-1.7812zm0-5.3125c3.9883 0 7.1016 1.0781 9.3438 3.2344 2.25 2.1562 3.375 5.1406 3.375 8.9531s-1.125 6.7969-3.375 8.9531c-2.2422 2.1484-5.3555 3.2188-9.3438 3.2188-4.0117 0-7.1484-1.0703-9.4062-3.2188-2.25-2.1562-3.375-5.1406-3.375-8.9531s1.125-6.7969 3.375-8.9531c2.2578-2.1562 5.3945-3.2344 9.4062-3.2344z"/>
  </symbol>
  <symbol id="p" overflow="visible">
   <path d="m21.688-22.469v5.625c-1.5859-0.65625-3.1172-1.1484-4.5938-1.4844-1.4805-0.33203-2.875-0.5-4.1875-0.5-1.4062 0-2.4531 0.17969-3.1406 0.53125-0.6875 0.35547-1.0312 0.89844-1.0312 1.625 0 0.59375 0.25781 1.0547 0.78125 1.375 0.51953 0.3125 1.4453 0.54297 2.7812 0.6875l1.3125 0.1875c3.8008 0.49219 6.3516 1.2891 7.6562 2.3906 1.3125 1.1055 1.9688 2.8398 1.9688 5.2031 0 2.4688-0.91406 4.3242-2.7344 5.5625-1.8242 1.2422-4.543 1.8594-8.1562 1.8594-1.5312 0-3.1172-0.12109-4.75-0.35938-1.6367-0.23828-3.3203-0.59766-5.0469-1.0781v-5.6406c1.4766 0.71875 2.9922 1.2617 4.5469 1.625 1.5508 0.35547 3.1289 0.53125 4.7344 0.53125 1.4453 0 2.5352-0.19531 3.2656-0.59375 0.73828-0.40625 1.1094-1.0039 1.1094-1.7969 0-0.65625-0.25781-1.1445-0.76562-1.4688-0.5-0.32031-1.5078-0.57812-3.0156-0.76562l-1.2969-0.15625c-3.3047-0.41406-5.6172-1.1797-6.9375-2.2969-1.3242-1.125-1.9844-2.8281-1.9844-5.1094 0-2.457 0.83594-4.2812 2.5156-5.4688 1.6875-1.1875 4.2695-1.7812 7.75-1.7812 1.3633 0 2.7969 0.10547 4.2969 0.3125 1.5078 0.21094 3.1484 0.53906 4.9219 0.98438z"/>
  </symbol>
  <symbol id="o" overflow="visible">
   <path d="m3.8906-30.922h10.156l7.0469 16.547 7.0781-16.547h10.125v30.922h-7.5312v-22.625l-7.125 16.688h-5.0625l-7.125-16.688v22.625h-7.5625z"/>
  </symbol>
  <symbol id="n" overflow="visible">
   <path d="m3.5625-32.234h7.4219v17.547l8.5312-8.5156h8.6094l-11.328 10.656 12.219 12.547h-8.9844l-9.0469-9.6719v9.6719h-7.4219z"/>
  </symbol>
  <symbol id="m" overflow="visible">
   <path d="m18.828-32.234v4.875h-4.0938c-1.0547 0-1.7891 0.19531-2.2031 0.57812-0.41797 0.375-0.625 1.0312-0.625 1.9688v1.6094h6.3438v5.3125h-6.3438v17.891h-7.4062v-17.891h-3.6875v-5.3125h3.6875v-1.6094c0-2.5312 0.70312-4.3984 2.1094-5.6094 1.4062-1.207 3.5859-1.8125 6.5469-1.8125z"/>
  </symbol>
  <symbol id="l" overflow="visible">
   <path d="m26.891-14.125v14.125h-7.4688v-10.766c0-2.0312-0.046875-3.4258-0.14062-4.1875-0.085938-0.75781-0.23438-1.3203-0.45312-1.6875-0.29297-0.47656-0.6875-0.85156-1.1875-1.125-0.49219-0.26953-1.0547-0.40625-1.6875-0.40625-1.5547 0-2.7734 0.60156-3.6562 1.7969-0.875 1.1992-1.3125 2.8555-1.3125 4.9688v11.406h-7.4219v-32.234h7.4219v12.438c1.1133-1.3516 2.2969-2.3516 3.5469-3 1.2578-0.64453 2.6484-0.96875 4.1719-0.96875 2.6758 0 4.707 0.82422 6.0938 2.4688 1.3945 1.6484 2.0938 4.0391 2.0938 7.1719z"/>
  </symbol>
  <symbol id="k" overflow="visible">
   <path d="m3.8906-30.922h8.9062l11.25 21.203v-21.203h7.5625v30.922h-8.9062l-11.25-21.219v21.219h-7.5625z"/>
  </symbol>
  <symbol id="j" overflow="visible">
   <path d="m3.8906-30.922h13.234c3.9375 0 6.957 0.875 9.0625 2.625 2.1016 1.7422 3.1562 4.2266 3.1562 7.4531 0 3.25-1.0547 5.75-3.1562 7.5-2.1055 1.7422-5.125 2.6094-9.0625 2.6094h-5.25v10.734h-7.9844zm7.9844 5.7812v8.625h4.4062c1.5391 0 2.7344-0.375 3.5781-1.125s1.2656-1.8164 1.2656-3.2031c0-1.375-0.42188-2.4297-1.2656-3.1719-0.84375-0.75-2.0391-1.125-3.5781-1.125z"/>
  </symbol>
  <symbol id="i" overflow="visible">
   <path d="m3.5625-23.203h7.4219v22.781c0 3.1133-0.75 5.4883-2.25 7.125-1.4922 1.6328-3.6523 2.4531-6.4844 2.4531h-3.6562v-4.875h1.2812c1.4062 0 2.3672-0.32031 2.8906-0.95312 0.53125-0.63672 0.79688-1.8867 0.79688-3.75zm0-9.0312h7.4219v6.0469h-7.4219z"/>
  </symbol>
 </defs>
 <g>
  <path d="m91.008 386.14c-0.97656 1.375-1.3672 3.0781-1.0781 4.75l26.363 155.32c0.52734 3.0977 3.2148 5.2969 6.2617 5.2969 0.35547 0 0.71094-0.035156 1.0703-0.09375l122.91-20.863c1.6641-0.28125 3.1484-1.2148 4.125-2.5859 0.97656-1.375 1.3672-3.0781 1.0781-4.75l-2.2578-13.305c53.156 8.2812 124.93 32.785 125.52 32.996 41.398 15.535 85.977 8.8242 124.53-10.988 30.426-15.773 78.891-33.785 101.51-56.926 16.656-17.012 9.3438-47.641-12.863-53.191-31.945-8.0938-83.008 13.051-105.29 23.453-0.32422-1.5859-0.83984-3.1484-1.5703-4.6836-9.2148-19.516-50.441-28.289-55.27-29.254-34.84-6.0508-97.254-41.637-97.34-41.637-30.844-22.859-74.566-8.4336-102.21 4.9883l-1.1445-6.7695c-0.58594-3.4688-3.8867-5.7969-7.3398-5.2109l-122.89 20.863c-1.6641 0.27734-3.1484 1.2109-4.125 2.5859zm230.77-5.8281c2.6406 1.5117 65.043 37.105 101.95 43.5 15.223 3.0625 41.203 11.801 46.113 22.188 0.67188 1.4258 1.1445 3.4609-0.16016 6.4219-19.023 19.125-45.605 21.723-71.367 6.7812-21.477-12.449-47.422-16.098-48.516-16.25-3.5117-0.49219-6.6875 1.9609-7.1602 5.4375-0.47656 3.4805 1.9531 6.6953 5.4375 7.168 0.24609 0.035156 24.605 3.4883 43.859 14.652 29.535 17.133 62.84 15.195 86.707-8.7305 6.8711-3.5117 72.062-36.086 106.45-27.355 12.48 3.1211 16.793 21.816 6.8711 31.953-20.602 21.066-68.32 38.996-98.254 54.516-22.367 11.488-66.938 28.137-114.39 10.316-3.2227-1.1133-77.457-26.449-132.07-34.203l-18.496-108.95c21.258-10.727 64.977-28.195 93.031-7.4414zm-107.88-4.0117 24.234 142.77-110.36 18.734-24.234-142.77z"/>
  <path d="m189.1 406.88c0 5.3281-4.3203 9.6445-9.6484 9.6445s-9.6445-4.3164-9.6445-9.6445 4.3164-9.6484 9.6445-9.6484 9.6484 4.3203 9.6484 9.6484"/>
  <path d="m148.41 414.34c0 5.3281-4.3203 9.6484-9.6484 9.6484s-9.6484-4.3203-9.6484-9.6484 4.3203-9.6484 9.6484-9.6484 9.6484 4.3203 9.6484 9.6484"/>
  <path d="m463.81 61.855-6.3984 5.9141c6.3633 4.3086 13.559 6.7812 21.57 7.4141v4.9648h5.6172l-0.003906-4.8945c5.957-0.23047 10.75-1.5859 14.375-4.082 3.6211-2.4961 5.4375-5.7188 5.4375-9.6914 0-3.9727-1.5781-6.9922-4.7344-9.0781-3.1562-2.0859-8.0938-3.7422-14.816-4.9648h-0.26172v-12.785c4.4961 0.5 8.6797 1.8164 12.531 3.9453l5.7031-6.2539c-5.7266-3.0391-11.812-4.7422-18.234-5.0977v-3.4805h-5.625v3.4023c-5.668 0.23047-10.266 1.5859-13.805 4.082-3.5391 2.4961-5.3125 5.7031-5.3125 9.6211 0 3.9219 1.5352 6.8828 4.6055 8.875 3.0703 1.9922 7.9062 3.6055 14.508 4.8281v13.195c-5.1953-0.62891-10.246-2.6055-15.156-5.9141zm20.777-6.1172c3.5039 0.81641 5.8984 1.6875 7.1875 2.6211 1.2812 0.92578 1.9258 2.1875 1.9258 3.7773 0 1.5859-0.82422 2.9023-2.4531 3.9453-1.6367 1.043-3.8594 1.6797-6.6602 1.9102zm-12.277-12.074c-1.1719-0.88281-1.7578-2.0859-1.7578-3.6055 0-1.5195 0.74609-2.793 2.2383-3.8086 1.4883-1.0195 3.5508-1.625 6.1797-1.8008v11.77c-3.2734-0.81641-5.4883-1.6719-6.6602-2.5547z"/>
  <path d="m585.82 301.8v-248.89c0-0.078125 0.027344-0.13672 0.027344-0.21094 0-28.711-53.871-44.207-104.56-44.207-50.656 0-104.49 15.477-104.55 44.156 0 0.015625-0.007812 0.035156-0.007812 0.050781v249.11c0 27.789 45.93 49.551 104.55 49.551 58.617 0 104.54-21.762 104.54-49.551zm-104.54-280.59c52.48 0 91.695 16.57 91.816 31.41 0 0.027344-0.015624 0.042968-0.015624 0.066406v0.15234c-0.27344 14.816-39.43 31.316-91.805 31.316-52.555 0-91.832-16.621-91.832-31.48 0.003906-14.844 39.281-31.465 91.836-31.465zm-91.832 53.371c18.922 14.586 56.129 22.309 91.832 22.309 35.688 0 72.875-7.7109 91.805-22.281v6.1602c0 17.41-37.707 36.816-91.816 36.816-54.109 0-91.824-19.406-91.824-36.816zm0 30.215c17.582 15.324 51.723 25.516 91.824 25.516 40.098 0 74.234-10.191 91.816-25.516v7.543c0 17.41-37.707 36.816-91.816 36.816s-91.824-19.406-91.824-36.816zm0 31.57c17.582 15.324 51.723 25.516 91.824 25.516 40.098 0 74.234-10.191 91.816-25.516v7.5508c0 17.41-37.707 36.816-91.816 36.816s-91.824-19.406-91.824-36.816zm0 31.582c17.582 15.324 51.723 25.516 91.824 25.516 40.098 0 74.234-10.191 91.816-25.516v7.543c0 17.41-37.707 36.816-91.816 36.816s-91.824-19.406-91.824-36.816zm0 31.57c17.582 15.324 51.723 25.516 91.824 25.516 40.098 0 74.234-10.191 91.816-25.516v7.5508c0 17.41-37.707 36.816-91.816 36.816s-91.824-19.406-91.824-36.816zm0 31.582c17.582 15.324 51.723 25.516 91.824 25.516 40.098 0 74.234-10.191 91.816-25.516v7.543c0 17.41-37.707 36.816-91.816 36.816s-91.824-19.406-91.824-36.816zm0 31.574c17.582 15.324 51.723 25.516 91.824 25.516 40.098 0 74.234-10.191 91.816-25.516v7.5508c0 17.41-37.707 36.816-91.816 36.816s-91.824-19.406-91.824-36.816zm0 39.121v-7.543c17.582 15.324 51.723 25.516 91.824 25.516 40.098 0 74.234-10.191 91.816-25.516v7.543c0 17.418-37.707 36.824-91.816 36.824-54.117 0-91.824-19.402-91.824-36.824z"/>
  <path d="m215.45 102.7-4.25 4.4961c4.2344 3.2734 9.0117 5.1602 14.332 5.6406v3.7773h3.7344v-3.7266c3.9609-0.17969 7.1445-1.2031 9.5547-3.1055 2.4102-1.9023 3.6133-4.3516 3.6133-7.375 0-3.0195-1.0508-5.3203-3.1484-6.9062s-5.3789-2.8438-9.8438-3.7773h-0.17969v-9.7266c2.9883 0.38281 5.7695 1.3828 8.332 3.0039l3.7852-4.7617c-3.8086-2.3164-7.8477-3.6055-12.117-3.8867v-2.6367h-3.7344v2.5859c-3.7656 0.16797-6.832 1.2031-9.1719 3.1055-2.3516 1.9023-3.5312 4.3359-3.5312 7.3242s1.0195 5.2344 3.0547 6.7461c2.043 1.5195 5.2539 2.7422 9.6484 3.6758v10.039c-3.4609-0.47656-6.8203-1.9805-10.078-4.4922zm13.805-4.6641c2.3242 0.62109 3.9219 1.2891 4.7773 1.9922s1.2812 1.6641 1.2812 2.875c0 1.2031-0.54297 2.207-1.6289 2.9961-1.0859 0.79687-2.5625 1.2734-4.4219 1.4492v-9.3125zm-8.1562-9.1836c-0.78125-0.67969-1.1641-1.5859-1.1641-2.7422 0-1.1523 0.49219-2.1211 1.4844-2.9023 0.99219-0.77344 2.3594-1.2305 4.1055-1.375v8.9531c-2.168-0.61719-3.6523-1.2617-4.4258-1.9336z"/>
  <path d="m112.27 241.92c0 0.078125-0.042969 0.14453-0.042969 0.21875v62.594c0 1.0195 0.29688 1.9531 0.72266 2.8086 5.8477 24.98 49.312 43.797 103.82 43.797 54.508 0 97.973-18.82 103.82-43.797 0.43359-0.85547 0.72266-1.7812 0.72266-2.8086 0-65.988 0.46484-63.129-0.63672-67.668 28.016-7.1875 48.934-20.133 48.934-38.301v-25.047c0-0.007812-0.007812-0.015625-0.007812-0.027344-0.007813-14.738-17.664-27.074-47.957-34.117 5.6094-5.4883 8.875-11.812 8.875-18.945v-24.859c0-0.066406 0.027343-0.12891 0.027343-0.19531 0-26.066-53.871-40.125-104.56-40.125s-104.56 14.059-104.56 40.125v25.047c0 17.598 19.668 30.266 46.371 37.578-5.7188 5.7109-7.3047 11.258-7.3047 15.492 0 0.042969 0.015625 0.085938 0.015625 0.12891 0 4.6484-0.39844 26.066 0.72266 30.527-30.684 7.8594-48.812 21.621-48.965 37.574zm244.62-43.148c0 10.387-17.582 21.57-45.938 27.625-0.23047 0.035156-0.44141 0.09375-0.67188 0.15234-13.043 2.7305-28.332 4.3867-45.215 4.3867-46.496 0-80.809-12.516-89.566-25.691-0.035156-0.058594-0.078125-0.10938-0.11719-0.16016-2.6289-4.0547-2.1367-6.3906-2.1367-11.473 18.922 13.227 56.109 20.238 91.805 20.238 35.711 0 72.91-7.0078 91.832-20.254v5.1758zm-0.007813-25.055c0 11.445-34.934 27.406-91.824 27.406-56.746 0-91.629-15.883-91.805-27.312v-0.078125c0-0.015625-0.007812-0.027344-0.007812-0.042969 0.015625-3.6562 4.0625-7.8906 10.945-11.801 13.371 2.3945 27.695 3.6484 41.805 3.6484 29.766 0 60.531-5.4648 80.938-15.852 32.391 5.4258 49.949 16.309 49.949 24.031zm-130.88-105.52c56.789 0 91.688 15.902 91.816 27.328 0 0.027344-0.015624 0.042969-0.015624 0.066406v0.13672c-0.26172 11.43-35.129 27.262-91.805 27.262-56.898 0-91.832-15.953-91.832-27.398 0.003906-11.445 34.934-27.395 91.836-27.395zm-91.832 52.441v-5.168c18.922 13.238 56.117 20.246 91.832 20.246 35.688 0 72.875-7 91.805-20.227 0 8.3906 0.17969 13.566-14.238 21.68-0.60156 0.23828-1.1875 0.5-1.6875 0.89844-15.953 8.3906-42.832 14.73-75.887 14.73-15.188 0-29.02-1.3672-41.145-3.6211-0.035156-0.007813-0.066406-0.007813-0.10156-0.015625-31.047-5.8008-50.578-17.594-50.578-28.523zm33.625 95.293c16.289 18.09 57.688 27.719 97.27 27.719 14.586 0 29.398-1.3398 43.152-3.8945 4.4375 16.055-37.586 33.828-91.414 33.828-52.555 0-91.824-16.613-91.824-31.461 0-8.2773 13.406-19.352 42.816-26.191zm-42.84 48.059c18.902 14.594 56.129 22.324 91.848 22.324 35.68 0 72.859-7.7109 91.789-22.273v6.168c0 17.41-37.707 36.816-91.824 36.816-54.109 0-91.816-19.406-91.816-36.816zm0 30.258c17.582 15.324 51.715 25.516 91.816 25.516 40.098 0 74.242-10.191 91.824-25.516v7.543c0 17.418-37.707 36.824-91.824 36.824-54.109 0-91.816-19.406-91.816-36.824z"/>
  <use x="70" y="687.273438" xlink:href="#s"/>
  <use x="101.132813" y="687.273438" xlink:href="#c"/>
  <use x="122.058594" y="687.273438" xlink:href="#b"/>
  <use x="150.828125" y="687.273438" xlink:href="#d"/>
  <use x="179.457031" y="687.273438" xlink:href="#a"/>
  <use x="199.738281" y="687.273438" xlink:href="#b"/>
  <use x="228.511719" y="687.273438" xlink:href="#h"/>
  <use x="273.648438" y="687.273438" xlink:href="#g"/>
  <use x="304.015625" y="687.273438" xlink:href="#f"/>
  <use x="346.441406" y="687.273438" xlink:href="#e"/>
  <use x="379.273438" y="687.273438" xlink:href="#b"/>
  <use x="408.046875" y="687.273438" xlink:href="#r"/>
  <use x="433.195313" y="687.273438" xlink:href="#a"/>
  <use x="453.476562" y="687.273438" xlink:href="#q"/>
  <use x="482.621094" y="687.273438" xlink:href="#c"/>
  <use x="503.542969" y="687.273438" xlink:href="#p"/>
  <use x="543.566406" y="687.273438" xlink:href="#o"/>
  <use x="585.78125" y="687.273438" xlink:href="#d"/>
  <use x="614.410156" y="687.273438" xlink:href="#c"/>
  <use x="635.332031" y="687.273438" xlink:href="#n"/>
  <use x="663.546875" y="687.273438" xlink:href="#b"/>
  <use x="692.320313" y="687.273438" xlink:href="#a"/>
  <use x="70" y="729.695312" xlink:href="#m"/>
  <use x="197.5" y="729.695312" xlink:href="#a"/>
  <use x="217.78125" y="729.695312" xlink:href="#l"/>
  <use x="291.527344" y="729.695312" xlink:href="#k"/>
  <use x="431.351563" y="729.695312" xlink:href="#j"/>
  <use x="512.511719" y="729.695312" xlink:href="#i"/>
  <use x="580.976562" y="729.695312" xlink:href="#a"/>
 </g>
</svg>
