<?xml version="1.0" encoding="UTF-8"?>
<svg width="700pt" height="700pt" version="1.1" viewBox="0 0 700 700" xmlns="http://www.w3.org/2000/svg" xmlns:xlink="http://www.w3.org/1999/xlink">
 <defs>
  <symbol id="w" overflow="visible">
   <path d="m3.6562-0.21875c-0.1875 0.09375-0.38672 0.16797-0.59375 0.21875-0.19922 0.050781-0.40625 0.078125-0.625 0.078125-0.66797 0-1.1992-0.17969-1.5938-0.54688-0.38672-0.375-0.57812-0.87891-0.57812-1.5156 0-0.64453 0.19141-1.1484 0.57812-1.5156 0.39453-0.375 0.92578-0.5625 1.5938-0.5625 0.21875 0 0.42578 0.027344 0.625 0.078125 0.20703 0.054687 0.40625 0.125 0.59375 0.21875v0.82812c-0.1875-0.125-0.375-0.21875-0.5625-0.28125-0.17969-0.0625-0.37109-0.09375-0.57812-0.09375-0.36719 0-0.65625 0.12109-0.875 0.35938-0.21094 0.23047-0.3125 0.55469-0.3125 0.96875 0 0.40625 0.10156 0.73047 0.3125 0.96875 0.21875 0.23047 0.50781 0.34375 0.875 0.34375 0.20703 0 0.39844-0.023437 0.57812-0.078125 0.1875-0.0625 0.375-0.16016 0.5625-0.29688z"/>
  </symbol>
  <symbol id="d" overflow="visible">
   <path d="m2.6875-2.1719c-0.085938-0.039063-0.16797-0.070313-0.25-0.09375-0.085938-0.019531-0.16797-0.03125-0.25-0.03125-0.25 0-0.44531 0.085937-0.57812 0.25-0.125 0.15625-0.1875 0.38281-0.1875 0.67188v1.375h-0.96875v-2.9844h0.96875v0.48438c0.11328-0.19531 0.25-0.33594 0.40625-0.42188 0.16406-0.09375 0.35938-0.14062 0.57812-0.14062h0.10938c0.039063 0 0.09375 0.007812 0.15625 0.015625z"/>
  </symbol>
  <symbol id="a" overflow="visible">
   <path d="m3.4375-1.5v0.26562h-2.2344c0.03125 0.23047 0.11328 0.40234 0.25 0.51562 0.13281 0.10547 0.32812 0.15625 0.57812 0.15625 0.20703 0 0.41406-0.023438 0.625-0.078125 0.20703-0.0625 0.42188-0.15625 0.64062-0.28125v0.73438c-0.21875 0.09375-0.44531 0.16406-0.67188 0.20312-0.23047 0.039062-0.45312 0.0625-0.67188 0.0625-0.54297 0-0.96484-0.13281-1.2656-0.40625-0.30469-0.28125-0.45312-0.67188-0.45312-1.1719 0-0.47656 0.14453-0.85938 0.4375-1.1406 0.30078-0.28125 0.70703-0.42188 1.2188-0.42188 0.46875 0 0.84375 0.14062 1.125 0.42188s0.42188 0.66406 0.42188 1.1406zm-0.96875-0.32812c0-0.17578-0.058594-0.31641-0.17188-0.42188-0.10547-0.11328-0.24219-0.17188-0.40625-0.17188-0.1875 0-0.33984 0.054687-0.45312 0.15625-0.11719 0.10547-0.1875 0.25-0.21875 0.4375z"/>
  </symbol>
  <symbol id="k" overflow="visible">
   <path d="m1.7969-1.3438c-0.19922 0-0.35156 0.039062-0.45312 0.10938-0.09375 0.0625-0.14062 0.16406-0.14062 0.29688 0 0.11719 0.035156 0.21094 0.10938 0.28125 0.082031 0.0625 0.19531 0.09375 0.34375 0.09375 0.17578 0 0.32812-0.0625 0.45312-0.1875s0.1875-0.28516 0.1875-0.48438v-0.10938zm1.4688-0.35938v1.7031h-0.96875v-0.4375c-0.125 0.17969-0.27344 0.30859-0.4375 0.39062-0.15625 0.082031-0.35156 0.125-0.57812 0.125-0.3125 0-0.57031-0.085938-0.76562-0.26562-0.1875-0.1875-0.28125-0.42188-0.28125-0.70312 0-0.35156 0.11719-0.61328 0.35938-0.78125 0.23828-0.16406 0.61719-0.25 1.1406-0.25h0.5625v-0.0625c0-0.15625-0.0625-0.26562-0.1875-0.32812-0.11719-0.070312-0.29688-0.10938-0.54688-0.10938-0.21094 0-0.40234 0.023437-0.57812 0.0625-0.17969 0.042969-0.33984 0.10156-0.48438 0.17188v-0.71875c0.19531-0.050781 0.39844-0.085938 0.60938-0.10938 0.20703-0.03125 0.41406-0.046875 0.625-0.046875 0.53906 0 0.92969 0.10938 1.1719 0.32812 0.23828 0.21094 0.35938 0.55469 0.35938 1.0312z"/>
  </symbol>
  <symbol id="c" overflow="visible">
   <path d="m1.5-3.8438v0.85938h0.98438v0.67188h-0.98438v1.2812c0 0.13672 0.023438 0.23047 0.078125 0.28125 0.0625 0.042969 0.17578 0.0625 0.34375 0.0625h0.48438v0.6875h-0.8125c-0.38672 0-0.65625-0.078125-0.8125-0.23438s-0.23438-0.42188-0.23438-0.79688v-1.2812h-0.46875v-0.67188h0.46875v-0.85938z"/>
  </symbol>
  <symbol id="j" overflow="visible">
   <path d="m2.5-2.5469v-1.6094h0.95312v4.1562h-0.95312v-0.4375c-0.13672 0.17969-0.28125 0.30859-0.4375 0.39062-0.15625 0.082031-0.33984 0.125-0.54688 0.125-0.375 0-0.68359-0.14453-0.92188-0.4375-0.23047-0.28906-0.34375-0.67188-0.34375-1.1406 0-0.45703 0.11328-0.83203 0.34375-1.125 0.23828-0.28906 0.54688-0.4375 0.92188-0.4375 0.19531 0 0.375 0.042969 0.53125 0.125 0.16406 0.085938 0.31641 0.21484 0.45312 0.39062zm-0.64062 1.9375c0.20703 0 0.36328-0.070313 0.46875-0.21875 0.11328-0.15625 0.17188-0.37891 0.17188-0.67188 0-0.28125-0.058594-0.49219-0.17188-0.64062-0.10547-0.15625-0.26172-0.23438-0.46875-0.23438-0.19922 0-0.35547 0.078125-0.46875 0.23438-0.10547 0.14844-0.15625 0.35938-0.15625 0.64062 0 0.29297 0.050781 0.51562 0.15625 0.67188 0.11328 0.14844 0.26953 0.21875 0.46875 0.21875z"/>
  </symbol>
  <symbol id="i" overflow="visible">
   <path d="m2.0469-0.60938c0.20703 0 0.36328-0.070313 0.46875-0.21875 0.11328-0.15625 0.17188-0.37891 0.17188-0.67188 0-0.28125-0.058594-0.49219-0.17188-0.64062-0.10547-0.15625-0.26172-0.23438-0.46875-0.23438-0.19922 0-0.35547 0.078125-0.46875 0.23438-0.10547 0.14844-0.15625 0.35938-0.15625 0.64062 0 0.29297 0.050781 0.51562 0.15625 0.67188 0.11328 0.14844 0.26953 0.21875 0.46875 0.21875zm-0.625-1.9375c0.125-0.17578 0.26562-0.30469 0.42188-0.39062 0.16406-0.082031 0.35156-0.125 0.5625-0.125 0.36328 0 0.66406 0.14844 0.90625 0.4375 0.23828 0.29297 0.35938 0.66797 0.35938 1.125 0 0.46875-0.12109 0.85156-0.35938 1.1406-0.24219 0.29297-0.54297 0.4375-0.90625 0.4375-0.21094 0-0.39844-0.042969-0.5625-0.125-0.15625-0.082031-0.29688-0.21094-0.42188-0.39062v0.4375h-0.96875v-4.1562h0.96875z"/>
  </symbol>
  <symbol id="h" overflow="visible">
   <path d="m0.0625-2.9844h0.95312l0.8125 2.0156 0.6875-2.0156h0.95312l-1.2656 3.2656c-0.125 0.33203-0.27344 0.56641-0.4375 0.70312-0.16797 0.13281-0.39062 0.20312-0.67188 0.20312h-0.54688v-0.64062h0.29688c0.16406 0 0.28516-0.027344 0.35938-0.078125 0.070313-0.054688 0.12891-0.14062 0.17188-0.26562l0.03125-0.09375z"/>
  </symbol>
  <symbol id="g" overflow="visible">
   <path d="m0.5-3.9844h1.0312v3.9844h-1.0312z"/>
  </symbol>
  <symbol id="f" overflow="visible">
   <path d="m2.875-2.8906v0.76562c-0.125-0.082031-0.25781-0.14453-0.39062-0.1875-0.13672-0.039062-0.27344-0.0625-0.40625-0.0625-0.27344 0-0.48047 0.078125-0.625 0.23438-0.14844 0.15625-0.21875 0.37109-0.21875 0.64062 0 0.28125 0.070313 0.5 0.21875 0.65625 0.14453 0.15625 0.35156 0.23438 0.625 0.23438 0.14453 0 0.28516-0.019531 0.42188-0.0625 0.13281-0.039063 0.25781-0.10938 0.375-0.20312v0.78125c-0.14844 0.0625-0.29688 0.10156-0.45312 0.125-0.15625 0.03125-0.3125 0.046875-0.46875 0.046875-0.54297 0-0.96484-0.13281-1.2656-0.40625-0.30469-0.28125-0.45312-0.67188-0.45312-1.1719 0-0.48828 0.14844-0.86719 0.45312-1.1406 0.30078-0.28125 0.72266-0.42188 1.2656-0.42188 0.15625 0 0.3125 0.015625 0.46875 0.046875 0.15625 0.023437 0.30469 0.0625 0.45312 0.125z"/>
  </symbol>
  <symbol id="b" overflow="visible">
   <path d="m1.875-2.375c-0.21094 0-0.37109 0.078125-0.48438 0.23438-0.10547 0.14844-0.15625 0.35938-0.15625 0.64062 0 0.29297 0.050781 0.51562 0.15625 0.67188 0.11328 0.14844 0.27344 0.21875 0.48438 0.21875 0.20703 0 0.36719-0.070313 0.48438-0.21875 0.11328-0.15625 0.17188-0.37891 0.17188-0.67188 0-0.28125-0.058594-0.49219-0.17188-0.64062-0.11719-0.15625-0.27734-0.23438-0.48438-0.23438zm0-0.6875c0.51953 0 0.92188 0.14062 1.2031 0.42188 0.28906 0.27344 0.4375 0.65234 0.4375 1.1406 0 0.5-0.14844 0.89062-0.4375 1.1719-0.28125 0.27344-0.68359 0.40625-1.2031 0.40625-0.51172 0-0.91406-0.13281-1.2031-0.40625-0.29297-0.28125-0.4375-0.67188-0.4375-1.1719 0-0.48828 0.14453-0.86719 0.4375-1.1406 0.28906-0.28125 0.69141-0.42188 1.2031-0.42188z"/>
  </symbol>
  <symbol id="e" overflow="visible">
   <path d="m3.4688-1.8281v1.8281h-0.96875v-1.3906c0-0.25781-0.007812-0.4375-0.015625-0.53125-0.011719-0.10156-0.03125-0.17578-0.0625-0.21875-0.03125-0.0625-0.085937-0.10938-0.15625-0.14062-0.0625-0.039062-0.13281-0.0625-0.20312-0.0625-0.21094 0-0.37109 0.078125-0.48438 0.23438-0.10547 0.15625-0.15625 0.37109-0.15625 0.64062v1.4688h-0.96875v-2.9844h0.96875v0.4375c0.13281-0.17578 0.28516-0.30469 0.45312-0.39062 0.16406-0.082031 0.34375-0.125 0.53125-0.125 0.34375 0 0.60156 0.10938 0.78125 0.32812 0.1875 0.21094 0.28125 0.51172 0.28125 0.90625z"/>
  </symbol>
  <symbol id="v" overflow="visible">
   <path d="m2.5-0.5c-0.13672 0.16797-0.28125 0.29297-0.4375 0.375-0.15625 0.085938-0.33984 0.125-0.54688 0.125-0.36719 0-0.66797-0.14062-0.90625-0.42188-0.24219-0.28906-0.35938-0.66016-0.35938-1.1094 0-0.44531 0.11719-0.8125 0.35938-1.0938 0.23828-0.28906 0.53906-0.4375 0.90625-0.4375 0.20703 0 0.39062 0.042969 0.54688 0.125 0.15625 0.085938 0.30078 0.21484 0.4375 0.39062v-0.4375h0.95312v2.6875c0 0.47656-0.15234 0.84375-0.45312 1.0938-0.30469 0.25781-0.74609 0.39062-1.3281 0.39062-0.17969 0-0.35547-0.015625-0.53125-0.046875-0.17969-0.03125-0.35547-0.078125-0.53125-0.14062v-0.73438c0.16406 0.09375 0.32812 0.16016 0.48438 0.20312 0.16406 0.050781 0.33203 0.078125 0.5 0.078125 0.3125 0 0.53906-0.070313 0.6875-0.20312 0.14453-0.13672 0.21875-0.34766 0.21875-0.64062zm-0.64062-1.875c-0.19922 0-0.35547 0.074219-0.46875 0.21875-0.10547 0.14844-0.15625 0.35547-0.15625 0.625 0 0.27344 0.050781 0.48047 0.15625 0.625 0.11328 0.14844 0.26953 0.21875 0.46875 0.21875 0.19531 0 0.35156-0.070312 0.46875-0.21875 0.11328-0.14453 0.17188-0.35156 0.17188-0.625 0-0.26953-0.058594-0.47656-0.17188-0.625-0.11719-0.14453-0.27344-0.21875-0.46875-0.21875z"/>
  </symbol>
  <symbol id="u" overflow="visible">
   <path d="m0.45312-4.1562h0.96875v2.2656l1.0938-1.0938h1.1094l-1.4531 1.3594 1.5625 1.625h-1.1562l-1.1562-1.25v1.25h-0.96875z"/>
  </symbol>
  <symbol id="t" overflow="visible">
   <path d="m1.5781-0.75h1.75v0.75h-2.8906v-0.75l1.4531-1.2969c0.125-0.11328 0.21875-0.22266 0.28125-0.32812 0.0625-0.11328 0.09375-0.23438 0.09375-0.35938 0-0.1875-0.0625-0.33594-0.1875-0.45312-0.125-0.11328-0.29297-0.17188-0.5-0.17188-0.15625 0-0.33594 0.039063-0.53125 0.10938-0.1875 0.0625-0.39062 0.16406-0.60938 0.29688v-0.875c0.23828-0.070313 0.46875-0.12891 0.6875-0.17188 0.22656-0.039062 0.45312-0.0625 0.67188-0.0625 0.47656 0 0.84766 0.10938 1.1094 0.32812 0.25781 0.21094 0.39062 0.5 0.39062 0.875 0 0.21094-0.058594 0.41406-0.17188 0.60938-0.10547 0.1875-0.33984 0.4375-0.70312 0.75z"/>
  </symbol>
  <symbol id="s" overflow="visible">
   <path d="m1.9844-1.9688c-0.1875 0-0.32812 0.058594-0.42188 0.17188-0.085938 0.11719-0.125 0.29297-0.125 0.53125 0 0.23047 0.039062 0.40625 0.125 0.53125 0.09375 0.11719 0.23438 0.17188 0.42188 0.17188 0.17578 0 0.30469-0.054688 0.39062-0.17188 0.09375-0.125 0.14062-0.30078 0.14062-0.53125 0-0.23828-0.046875-0.41406-0.14062-0.53125-0.085938-0.11328-0.21484-0.17188-0.39062-0.17188zm1.2656-1.9062v0.73438c-0.16797-0.082031-0.32812-0.14062-0.48438-0.17188-0.14844-0.039062-0.29297-0.0625-0.4375-0.0625-0.30469 0-0.54297 0.085938-0.71875 0.25-0.16797 0.16797-0.26562 0.41797-0.29688 0.75 0.125-0.082031 0.25391-0.14453 0.39062-0.1875 0.13281-0.039062 0.28516-0.0625 0.45312-0.0625 0.40625 0 0.73438 0.12109 0.98438 0.35938 0.25 0.23047 0.375 0.54297 0.375 0.9375 0 0.42969-0.14062 0.77344-0.42188 1.0312-0.28125 0.25-0.65625 0.375-1.125 0.375-0.52344 0-0.92188-0.17188-1.2031-0.51562-0.28125-0.35156-0.42188-0.85156-0.42188-1.5 0-0.65625 0.16016-1.1719 0.48438-1.5469 0.33203-0.375 0.78906-0.5625 1.375-0.5625 0.1875 0 0.36328 0.015625 0.53125 0.046875 0.17578 0.023438 0.34766 0.0625 0.51562 0.125z"/>
  </symbol>
  <symbol id="r" overflow="visible">
   <path d="m2.4219-4.1562v0.625h-0.51562c-0.13672 0-0.23438 0.027344-0.29688 0.078125-0.054687 0.054687-0.078125 0.13672-0.078125 0.25v0.21875h0.82812v0.67188h-0.82812v2.3125h-0.95312v-2.3125h-0.46875v-0.67188h0.46875v-0.21875c0-0.32031 0.085937-0.5625 0.26562-0.71875 0.1875-0.15625 0.47266-0.23438 0.85938-0.23438z"/>
  </symbol>
  <symbol id="q" overflow="visible">
   <path d="m3.2344-2.5c0.11328-0.17578 0.25391-0.3125 0.42188-0.40625 0.16406-0.10156 0.35156-0.15625 0.5625-0.15625 0.33203 0 0.58594 0.10938 0.76562 0.32812 0.1875 0.21094 0.28125 0.51172 0.28125 0.90625v1.8281h-0.96875v-1.5625c0.007813-0.019531 0.015625-0.039062 0.015625-0.0625v-0.10938c0-0.21875-0.03125-0.375-0.09375-0.46875s-0.16406-0.14062-0.29688-0.14062c-0.1875 0-0.33594 0.078125-0.4375 0.23438-0.09375 0.14844-0.14062 0.35938-0.14062 0.64062v1.4688h-0.96875v-1.5625c0-0.33203-0.03125-0.54688-0.09375-0.64062-0.054688-0.09375-0.15234-0.14062-0.29688-0.14062-0.17969 0-0.32031 0.078125-0.42188 0.23438-0.09375 0.14844-0.14062 0.35938-0.14062 0.64062v1.4688h-0.96875v-2.9844h0.96875v0.4375c0.11328-0.17578 0.24219-0.30469 0.39062-0.39062 0.15625-0.082031 0.32812-0.125 0.51562-0.125 0.20703 0 0.39062 0.054688 0.54688 0.15625 0.15625 0.09375 0.27344 0.23047 0.35938 0.40625z"/>
  </symbol>
  <symbol id="p" overflow="visible">
   <path d="m3.4688-1.8281v1.8281h-0.96875v-1.3906c0-0.25781-0.007812-0.4375-0.015625-0.53125-0.011719-0.10156-0.03125-0.17578-0.0625-0.21875-0.03125-0.0625-0.085937-0.10938-0.15625-0.14062-0.0625-0.039062-0.13281-0.0625-0.20312-0.0625-0.21094 0-0.37109 0.078125-0.48438 0.23438-0.10547 0.15625-0.15625 0.37109-0.15625 0.64062v1.4688h-0.96875v-4.1562h0.96875v1.6094c0.13281-0.17578 0.28516-0.30469 0.45312-0.39062 0.16406-0.082031 0.34375-0.125 0.53125-0.125 0.34375 0 0.60156 0.10938 0.78125 0.32812 0.1875 0.21094 0.28125 0.51172 0.28125 0.90625z"/>
  </symbol>
  <symbol id="o" overflow="visible">
   <path d="m0.5-3.9844h1.1562l1.4375 2.7344v-2.7344h0.98438v3.9844h-1.1562l-1.4375-2.7344v2.7344h-0.98438z"/>
  </symbol>
  <symbol id="n" overflow="visible">
   <path d="m0.42188-1.1719v-1.8125h0.96875v0.29688 0.60938 0.48438c0 0.24219 0.003906 0.41797 0.015625 0.53125 0.007812 0.10547 0.03125 0.17969 0.0625 0.21875 0.039062 0.0625 0.09375 0.11719 0.15625 0.15625 0.0625 0.03125 0.13281 0.046875 0.21875 0.046875 0.19531 0 0.35156-0.078125 0.46875-0.23438 0.11328-0.15625 0.17188-0.36719 0.17188-0.64062v-1.4688h0.95312v2.9844h-0.95312v-0.4375c-0.14844 0.17969-0.30469 0.30859-0.46875 0.39062-0.15625 0.082031-0.33594 0.125-0.53125 0.125-0.34375 0-0.60938-0.10156-0.79688-0.3125-0.17969-0.21875-0.26562-0.53125-0.26562-0.9375z"/>
  </symbol>
  <symbol id="m" overflow="visible">
   <path d="m0.5-3.9844h1.7031c0.50781 0 0.89844 0.11719 1.1719 0.34375 0.26953 0.21875 0.40625 0.53906 0.40625 0.95312 0 0.41797-0.13672 0.74219-0.40625 0.96875-0.27344 0.21875-0.66406 0.32812-1.1719 0.32812h-0.67188v1.3906h-1.0312zm1.0312 0.75v1.1094h0.5625c0.19531 0 0.34766-0.046875 0.45312-0.14062 0.11328-0.10156 0.17188-0.24219 0.17188-0.42188 0-0.17578-0.058594-0.3125-0.17188-0.40625-0.10547-0.09375-0.25781-0.14062-0.45312-0.14062z"/>
  </symbol>
  <symbol id="l" overflow="visible">
   <path d="m0.45312-2.9844h0.96875v2.9375c0 0.39453-0.10156 0.69531-0.29688 0.90625-0.1875 0.21875-0.46484 0.32812-0.82812 0.32812h-0.48438v-0.64062h0.17188c0.17578 0 0.29688-0.042969 0.35938-0.125 0.070312-0.074219 0.10938-0.23047 0.10938-0.46875zm0-1.1719h0.96875v0.78125h-0.96875z"/>
  </symbol>
 </defs>
 <g>
  <path d="m339.11 108.72c-1.7227-0.25391-3.4727 0.18359-4.8711 1.2227-1.3984 1.0391-2.3242 2.5898-2.5781 4.3125-2.6719 18.039-7.0508 35.781-13.09 52.988-0.58594 1.6445-0.49219 3.457 0.25781 5.0312 0.75391 1.5781 2.1016 2.7891 3.75 3.3672 1.6484 0.57812 3.457 0.47656 5.0312-0.28125 1.5703-0.76172 2.7773-2.1172 3.3438-3.7656 6.3164-18 10.898-36.555 13.688-55.422 0.25781-1.7227-0.18359-3.4766-1.2227-4.8711-1.0352-1.3984-2.5859-2.3281-4.3086-2.582z"/>
  <path d="m341.07 84.965c-3.6172-0.22656-6.7305 2.5195-6.9609 6.1367-0.085937 1.3555-0.17969 2.7109-0.28906 4.0664-0.28516 3.6094 2.4141 6.7695 6.0273 7.0547 0.17578 0.015625 0.35156 0.019532 0.52344 0.019532 3.4219-0.003907 6.2656-2.6328 6.5352-6.0469 0.11328-1.4219 0.21484-2.8438 0.30469-4.2656h-0.003907c0.11328-1.7383-0.47266-3.4453-1.625-4.7539-1.1484-1.3047-2.7734-2.1016-4.5117-2.2109z"/>
  <path d="m185.18 108.72c-3.5859-0.53125-6.9219 1.9492-7.4492 5.5312-2.6719 18.039-7.0547 35.785-13.09 52.992-0.58594 1.6445-0.49219 3.457 0.25781 5.0312 0.75391 1.5781 2.1016 2.7891 3.75 3.3672 1.6484 0.57812 3.457 0.47656 5.0273-0.28125 1.5742-0.76172 2.7773-2.1172 3.3477-3.7656 6.3125-18 10.898-36.555 13.688-55.422 0.25781-1.7227-0.18359-3.4766-1.2227-4.875-1.0352-1.3945-2.5859-2.3242-4.3086-2.5781z"/>
  <path d="m187.14 84.965c-3.6172-0.22656-6.7344 2.5195-6.9609 6.1367-0.085938 1.3555-0.17969 2.7109-0.28906 4.0664-0.28516 3.6133 2.4141 6.7695 6.0273 7.0547 0.17578 0.015625 0.34766 0.019532 0.51953 0.019532h0.003906c3.4219-0.003907 6.2656-2.6367 6.5352-6.0469 0.11328-1.4219 0.21094-2.8438 0.30078-4.2656 0.10938-1.7383-0.47656-3.4492-1.625-4.7539-1.1523-1.3047-2.7734-2.1016-4.5117-2.2109z"/>
  <path d="m493.05 108.72c-3.582-0.53125-6.918 1.9492-7.4492 5.5312-2.668 18.039-7.0508 35.785-13.086 52.992-0.58984 1.6445-0.49609 3.457 0.25391 5.0312 0.75391 1.5781 2.1016 2.7891 3.75 3.3672s3.457 0.47656 5.0312-0.28125c1.5703-0.76172 2.7773-2.1172 3.3477-3.7656 6.3125-18 10.895-36.555 13.688-55.422 0.25391-1.7227-0.1875-3.4766-1.2227-4.875-1.0391-1.3945-2.5898-2.3242-4.3125-2.5781z"/>
  <path d="m495.01 84.965c-3.6172-0.22656-6.7344 2.5195-6.9648 6.1367-0.085938 1.3555-0.17969 2.7109-0.28906 4.0664h0.003906c-0.28516 3.6133 2.4141 6.7695 6.0273 7.0547 0.17578 0.015625 0.34766 0.019532 0.51953 0.019532 3.4258-0.003907 6.2695-2.6367 6.5352-6.0469 0.11328-1.4219 0.21094-2.8438 0.30078-4.2656h0.003906c0.10938-1.7383-0.47656-3.4492-1.625-4.7539-1.1523-1.3047-2.7734-2.1016-4.5117-2.2109z"/>
  <path d="m594.18 285.64h-22.992v-42.152c0-3.9961-0.12891-7.9844-0.38672-11.844l0.003907-0.003907c-1.1484-18.121-4.9258-35.98-11.223-53.012l-3.5664-9.6484c-10.5-28.383-16.418-58.254-17.531-88.496v-41.836c-0.003906-6.0352-4.8984-10.93-10.938-10.938h-48.898c-6.0391 0.007812-10.934 4.9023-10.938 10.938v43.445c-0.96875 29.031-6.3555 57.746-15.98 85.152l-4.4727 12.738v-0.003906c-5.8633 16.652-9.3281 34.059-10.281 51.688-0.19531 3.2969-0.29687 6.7656-0.29687 10.301v43.672h-19.426v-42.152c0-3.9883-0.12891-7.9844-0.38672-11.844h0.003906c-1.1484-18.125-4.9258-35.984-11.223-53.016l-3.5664-9.6484c-10.5-28.383-16.418-58.254-17.531-88.496v-41.836c-0.003906-6.0352-4.8984-10.93-10.938-10.938h-48.902c-6.0352 0.007812-10.93 4.9023-10.938 10.938v43.445c-0.96484 29.027-6.3516 57.742-15.977 85.145l-4.4844 12.746c-5.8555 16.656-9.3125 34.055-10.27 51.68-0.19531 3.2969-0.29688 6.7617-0.29688 10.301v43.672l-19.426 0.003906v-42.152c0-3.9961-0.12891-7.9844-0.38672-11.844v-0.003907c-1.1445-18.121-4.9258-35.98-11.219-53.012l-3.5664-9.6484c-10.504-28.383-16.422-58.254-17.531-88.496v-41.836c-0.007813-6.0352-4.8984-10.93-10.938-10.938h-48.902c-6.0352 0.007812-10.93 4.9023-10.938 10.938v43.445c-0.96484 29.031-6.3555 57.742-15.98 85.145l-4.4844 12.746c-5.8516 16.656-9.3086 34.055-10.266 51.684-0.19531 3.2969-0.29688 6.7656-0.29688 10.301v43.672h-22.992c-3.625 0-6.5625 2.9375-6.5625 6.5625v233.52c0 3.625 2.9375 6.5625 6.5625 6.5625h488.36c3.625 0 6.5625-2.9375 6.5625-6.5625v-233.52c0-3.625-2.9375-6.5625-6.5625-6.5625zm-113.34-244.8h44.527l-0.003906 19.645h-44.523zm-21.195 143.5 4.4727-12.742c10.078-28.699 15.715-58.77 16.719-89.172v-0.21875-8.5977h44.527v7 0.24219c1.1523 31.672 7.3438 62.961 18.344 92.684l3.5664 9.6445c5.0391 13.648 8.3477 27.879 9.8438 42.352h-106.51c1.3203-14.047 4.3555-27.883 9.0352-41.195zm-9.8359 57.629c0-1.1172 0.023437-2.2148 0.046874-3.3125h108.13c0.046875 1.6055 0.078125 3.2188 0.078125 4.8359v42.152h-108.26zm-122.91-201.13h44.527v19.645h-44.527zm-21.207 143.5 4.4844-12.746c10.078-28.699 15.719-58.77 16.719-89.172v-0.21875-8.5938h44.527v7 0.24219c1.1484 31.672 7.3398 62.957 18.34 92.684l3.5664 9.6445h-0.003906c5.043 13.648 8.3477 27.879 9.8438 42.352h-106.5c1.3203-14.047 4.3516-27.879 9.0234-41.188zm-9.8203 57.629c0-1.1172 0.023437-2.2148 0.046875-3.3125h108.13c0.046875 1.6055 0.078125 3.2188 0.078125 4.8359v42.152l-108.26-0.003906zm-122.91-201.13h44.527v19.645h-44.527zm-21.207 143.5 4.4844-12.746c10.078-28.699 15.719-58.77 16.719-89.172v-0.21875-8.5938h44.527v7 0.24219c1.1523 31.672 7.3438 62.957 18.34 92.684l3.5664 9.6445c5.0391 13.648 8.3477 27.879 9.8438 42.352h-106.5c1.3203-14.047 4.3516-27.879 9.0234-41.188zm-9.8203 57.629c0-1.1172 0.023438-2.2148 0.046875-3.3125h108.13c0.042968 1.6055 0.078124 3.2188 0.078124 4.8359v42.152h-108.26zm445.68 277.19h-475.23v-65.309h475.23zm0-153.99h-356.01c-3.625 0-6.5625 2.9375-6.5625 6.5625 0 3.6211 2.9375 6.5625 6.5625 6.5625h356.01v62.43h-475.23v-62.43h87.773c3.625 0 6.5625-2.9414 6.5625-6.5625 0-3.625-2.9375-6.5625-6.5625-6.5625h-87.773v-66.402h475.23z"/>
  <path d="m185.94 388.55c-5.5117 0-10.797 2.1875-14.695 6.0859-3.8984 3.8984-6.0859 9.1836-6.0859 14.695 0 5.5117 2.1875 10.797 6.0859 14.695 3.8984 3.8984 9.1836 6.0859 14.695 6.0859s10.797-2.1875 14.695-6.0859c3.8984-3.8984 6.0859-9.1836 6.0859-14.695-0.007812-5.5078-2.1992-10.793-6.0938-14.688-3.8945-3.8945-9.1797-6.0859-14.688-6.0938zm0 28.438c-3.0977 0-5.8867-1.8672-7.0742-4.7266-1.1836-2.8594-0.52734-6.1523 1.6602-8.3438 2.1914-2.1875 5.4844-2.8438 8.3438-1.6602 2.8594 1.1875 4.7266 3.9766 4.7266 7.0742-0.003906 4.2266-3.4297 7.6523-7.6562 7.6562z"/>
  <path d="m295.31 430.12c5.5117 0 10.797-2.1875 14.695-6.0859 3.8984-3.8984 6.0859-9.1836 6.0859-14.695 0-5.5117-2.1875-10.797-6.0859-14.695-3.8984-3.8984-9.1836-6.0859-14.695-6.0859s-10.797 2.1875-14.695 6.0859c-3.8984 3.8984-6.0859 9.1836-6.0859 14.695 0.007812 5.5078 2.1992 10.793 6.0938 14.688 3.8945 3.8945 9.1797 6.0859 14.688 6.0938zm0-28.438c3.0977 0 5.8867 1.8672 7.0742 4.7266 1.1836 2.8594 0.52734 6.1523-1.6602 8.3438-2.1914 2.1875-5.4844 2.8438-8.3438 1.6602-2.8594-1.1875-4.7266-3.9766-4.7266-7.0742 0.003906-4.2266 3.4297-7.6523 7.6562-7.6562z"/>
  <path d="m404.69 430.12c5.5117 0 10.797-2.1875 14.695-6.0859 3.8984-3.8984 6.0859-9.1836 6.0859-14.695 0-5.5117-2.1875-10.797-6.0859-14.695-3.8984-3.8984-9.1836-6.0859-14.695-6.0859s-10.797 2.1875-14.695 6.0859c-3.8984 3.8984-6.0859 9.1836-6.0859 14.695 0.007812 5.5078 2.1992 10.793 6.0938 14.688 3.8945 3.8945 9.1797 6.0859 14.688 6.0938zm0-28.438c3.0977 0 5.8867 1.8672 7.0742 4.7266 1.1836 2.8594 0.52734 6.1523-1.6602 8.3438-2.1914 2.1875-5.4844 2.8438-8.3438 1.6602-2.8594-1.1875-4.7266-3.9766-4.7266-7.0742 0.003906-4.2266 3.4297-7.6523 7.6562-7.6562z"/>
  <path d="m514.06 430.12c5.5117 0 10.797-2.1875 14.695-6.0859 3.8984-3.8984 6.0859-9.1836 6.0859-14.695 0-5.5117-2.1875-10.797-6.0859-14.695-3.8984-3.8984-9.1836-6.0859-14.695-6.0859s-10.797 2.1875-14.695 6.0859c-3.8984 3.8984-6.0859 9.1836-6.0859 14.695 0.007812 5.5078 2.1992 10.793 6.0938 14.688 3.8945 3.8945 9.1797 6.0859 14.688 6.0938zm0-28.438c3.0977 0 5.8867 1.8672 7.0742 4.7266 1.1836 2.8594 0.52734 6.1523-1.6602 8.3438-2.1914 2.1875-5.4844 2.8438-8.3438 1.6602-2.8594-1.1875-4.7266-3.9766-4.7266-7.0742 0.003906-4.2266 3.4297-7.6523 7.6562-7.6562z"/>
  <use x="70" y="576.40625" xlink:href="#w"/>
  <use x="74.011719" y="576.40625" xlink:href="#d"/>
  <use x="76.710938" y="576.40625" xlink:href="#a"/>
  <use x="80.417969" y="576.40625" xlink:href="#k"/>
  <use x="84.109375" y="576.40625" xlink:href="#c"/>
  <use x="86.722656" y="576.40625" xlink:href="#a"/>
  <use x="90.433594" y="576.40625" xlink:href="#j"/>
  <use x="96.25" y="576.40625" xlink:href="#i"/>
  <use x="100.167969" y="576.40625" xlink:href="#h"/>
  <use x="105.636719" y="576.40625" xlink:href="#g"/>
  <use x="107.667969" y="576.40625" xlink:href="#f"/>
  <use x="110.910156" y="576.40625" xlink:href="#b"/>
  <use x="114.667969" y="576.40625" xlink:href="#e"/>
  <use x="118.5625" y="576.40625" xlink:href="#v"/>
  <use x="122.476562" y="576.40625" xlink:href="#a"/>
  <use x="126.183594" y="576.40625" xlink:href="#a"/>
  <use x="129.894531" y="576.40625" xlink:href="#u"/>
  <use x="133.53125" y="576.40625" xlink:href="#t"/>
  <use x="137.335938" y="576.40625" xlink:href="#s"/>
  <use x="70" y="581.875" xlink:href="#r"/>
  <use x="72.378906" y="581.875" xlink:href="#d"/>
  <use x="75.078125" y="581.875" xlink:href="#b"/>
  <use x="78.832031" y="581.875" xlink:href="#q"/>
  <use x="86.4375" y="581.875" xlink:href="#c"/>
  <use x="89.050781" y="581.875" xlink:href="#p"/>
  <use x="92.941406" y="581.875" xlink:href="#a"/>
  <use x="98.554688" y="581.875" xlink:href="#o"/>
  <use x="103.132812" y="581.875" xlink:href="#b"/>
  <use x="106.890625" y="581.875" xlink:href="#n"/>
  <use x="110.785156" y="581.875" xlink:href="#e"/>
  <use x="116.582031" y="581.875" xlink:href="#m"/>
  <use x="120.589844" y="581.875" xlink:href="#d"/>
  <use x="123.285156" y="581.875" xlink:href="#b"/>
  <use x="127.042969" y="581.875" xlink:href="#l"/>
  <use x="128.917969" y="581.875" xlink:href="#a"/>
  <use x="132.625" y="581.875" xlink:href="#f"/>
  <use x="135.867188" y="581.875" xlink:href="#c"/>
 </g>
</svg>
