<?xml version="1.0" encoding="UTF-8"?>
<svg width="700pt" height="700pt" version="1.1" viewBox="0 0 700 700" xmlns="http://www.w3.org/2000/svg">
 <path d="m457.64 512.4h-283.33c-30.465 0-55.445-24.988-55.445-55.453v-353.89c0-30.492 24.957-55.453 55.445-55.453h260.67c30.512 0 55.445 24.957 55.445 55.453v166.29c20.895 5.7812 39.574 16.887 54.469 31.781 22.391 22.391 36.246 53.344 36.246 87.512s-13.855 65.117-36.246 87.508c-22.336 22.336-53.184 36.18-87.254 36.246zm-292.13-377.61c-4.6367 0-8.3984-3.7617-8.3984-8.3984s3.7617-8.3984 8.3984-8.3984h278.26c4.6367 0 8.3984 3.7617 8.3984 8.3984s-3.7617 8.3984-8.3984 8.3984zm0 307.22c-4.6367 0-8.3984-3.7617-8.3984-8.3984s3.7617-8.3984 8.3984-8.3984h125.22c4.6367 0 8.3984 3.7617 8.3984 8.3984s-3.7617 8.3984-8.3984 8.3984zm0-51.199c-4.6367 0-8.3984-3.7617-8.3984-8.3984 0-4.6367 3.7617-8.3984 8.3984-8.3984h125.22c4.6367 0 8.3984 3.7617 8.3984 8.3984 0 4.6367-3.7617 8.3984-8.3984 8.3984zm0-51.207c-4.6367 0-8.3984-3.7617-8.3984-8.3984s3.7617-8.3984 8.3984-8.3984h125.22c4.6367 0 8.3984 3.7617 8.3984 8.3984s-3.7617 8.3984-8.3984 8.3984zm0-51.207c-4.6367 0-8.3984-3.7617-8.3984-8.3984 0-4.6367 3.7617-8.3984 8.3984-8.3984h125.22c4.6367 0 8.3984 3.7617 8.3984 8.3984 0 4.6367-3.7617 8.3984-8.3984 8.3984zm0-51.199c-4.6367 0-8.3984-3.7617-8.3984-8.3984s3.7617-8.3984 8.3984-8.3984h278.26c4.6367 0 8.3984 3.7617 8.3984 8.3984s-3.7617 8.3984-8.3984 8.3984zm0-51.207c-4.6367 0-8.3984-3.7617-8.3984-8.3984 0-4.6367 3.7617-8.3984 8.3984-8.3984h278.26c4.6367 0 8.3984 3.7617 8.3984 8.3984 0 4.6367-3.7617 8.3984-8.3984 8.3984zm291.88 95.703c-29.531 0-56.281 11.973-75.633 31.324-19.352 19.352-31.324 46.102-31.324 75.633s11.973 56.273 31.324 75.629c19.352 19.352 46.102 31.324 75.633 31.324s56.273-11.973 75.629-31.324c19.352-19.352 31.324-46.094 31.324-75.629 0-29.531-11.973-56.281-31.324-75.633-20.219-20.219-47.316-31.324-75.629-31.324zm16.238-15.742v-162.89c0-21.258-17.367-38.652-38.648-38.652h-260.67c-21.25 0-38.648 17.395-38.648 38.652v353.89c0 21.27 17.367 38.652 38.648 38.652h220.79c-9.2344-5.3906-17.715-11.938-25.219-19.445-22.391-22.391-36.246-53.336-36.246-87.508 0-34.168 13.855-65.125 36.246-87.512 22.391-22.391 53.344-36.246 87.512-36.246 5.5039 0 10.926 0.36328 16.238 1.0586zm16.199 49.004c2.2812-4.0195 7.3945-5.4297 11.418-3.1484 4.0195 2.2812 5.4297 7.3945 3.1484 11.418l-79.43 139.12c-2.2812 4.0195-7.3945 5.4297-11.418 3.1484-4.0195-2.2812-5.4297-7.3945-3.1484-11.418zm-72.148-4.2656c8.5586 0 16.324 3.4805 21.926 9.082 5.6094 5.6094 9.082 13.367 9.082 21.926 0 8.5391-3.4805 16.285-9.082 21.895-5.6406 5.6367-13.387 9.1133-21.926 9.1133-8.5273 0-16.277-3.4805-21.895-9.082-5.6367-5.6406-9.1133-13.387-9.1133-21.926 0-8.5312 3.4805-16.277 9.082-21.895 5.6484-5.6367 13.395-9.1133 21.926-9.1133zm10.047 20.961c-2.5664-2.5664-6.125-4.1602-10.047-4.1602-3.9336 0-7.5 1.5938-10.059 4.1484-2.5547 2.5586-4.1484 6.125-4.1484 10.059 0 3.9336 1.5938 7.5 4.1484 10.059 2.5586 2.5547 6.1328 4.1484 10.059 4.1484 3.9336 0 7.5-1.5938 10.059-4.1484 2.5547-2.5586 4.1484-6.125 4.1484-10.059 0-3.9219-1.5938-7.4805-4.1602-10.047zm69.383 72.949c8.5508 0 16.316 3.4805 21.918 9.082l0.49609 0.54297c5.3125 5.5703 8.5859 13.109 8.5859 21.383 0 8.5391-3.4805 16.285-9.082 21.895-5.6016 5.6367-13.367 9.1133-21.918 9.1133-8.5312 0-16.277-3.4805-21.895-9.082-5.6367-5.6406-9.1133-13.387-9.1133-21.926 0-8.5312 3.4805-16.277 9.082-21.895 5.6484-5.6367 13.395-9.1133 21.926-9.1133zm10.039 20.961c-2.5664-2.5664-6.125-4.1602-10.039-4.1602-3.9336 0-7.5 1.5938-10.059 4.1484-2.5547 2.5586-4.1484 6.125-4.1484 10.059 0 3.9336 1.5938 7.5 4.1484 10.059 2.5586 2.5547 6.125 4.1484 10.059 4.1484 3.9141 0 7.4727-1.5938 10.039-4.1602 2.5664-2.5469 4.1602-6.1133 4.1602-10.047 0-3.7617-1.457-7.1836-3.8164-9.7148z"/>
</svg>
